# Blender v2.92.0 OBJ File: 'objects1.blend'
# www.blender.org
mtllib collectible_lantern.mtl
o collectible__lantern_Cube.020
v -0.343093 1.518630 0.319535
v -0.343093 1.616093 -0.319535
v 0.295977 1.616093 0.319535
v 0.295977 1.689440 -0.319535
v -0.477839 1.544337 0.454281
v -0.477839 1.616093 -0.454281
v 0.430723 1.751925 -0.454281
v 0.430723 1.616093 0.454281
v -0.343093 0.437890 0.319535
v -0.343093 0.437890 -0.319535
v 0.295977 0.437890 -0.319535
v 0.295977 0.437890 0.319535
v -0.343093 0.419267 0.319535
v -0.343093 0.419267 -0.319535
v 0.295977 0.419267 -0.319535
v 0.295977 0.419267 0.319535
v -0.386589 0.138090 0.363031
v -0.477839 0.286531 0.454281
v -0.386589 0.138090 -0.363031
v -0.477839 0.286531 -0.454281
v 0.339473 0.138090 0.363031
v 0.430723 0.286531 0.454281
v 0.339473 0.138090 -0.363031
v 0.430723 0.286531 -0.454281
v -0.452221 0.951312 0.428663
v -0.452221 0.659885 -0.428663
v 0.405105 1.188100 0.438171
v 0.405105 0.951312 -0.428663
vt 0.543711 0.974244
vt 0.543971 0.987844
vt 0.534769 0.985565
vt 0.535028 0.966719
vt 0.552744 0.964843
vt 0.553209 0.990204
vt 0.526013 0.957131
vt 0.525709 0.987487
vt 0.517067 0.994539
vt 0.517028 0.969083
vt 0.609164 0.979470
vt 0.598220 0.978698
vt 0.598220 0.966296
vt 0.609164 0.966296
vt 0.547411 0.995656
vt 0.515540 0.995665
vt 0.508834 0.995257
vt 0.554050 0.995250
vt 0.515507 0.997608
vt 0.508743 0.998022
vt 0.547344 0.997601
vt 0.554050 0.998010
vt 0.284138 0.810606
vt 0.483996 0.810607
vt 0.483996 0.814187
vt 0.284138 0.814186
vt 0.582663 0.966881
vt 0.593606 0.966109
vt 0.593606 0.979283
vt 0.582663 0.979283
vt 0.578048 0.980047
vt 0.567105 0.979021
vt 0.567105 0.967645
vt 0.578048 0.967645
vt 0.609164 0.967126
vt 0.620107 0.966100
vt 0.620107 0.978502
vt 0.609164 0.978502
vt 0.620095 0.989629
vt 0.609164 0.989653
vt 0.609164 0.978721
vt 0.620095 0.978698
vt 0.199859 0.598070
vt 0.000000 0.598070
vt 0.000000 0.594490
vt 0.199859 0.594490
vt 0.768133 0.796345
vt 0.967992 0.796345
vt 0.967992 0.799925
vt 0.768133 0.799925
vt 0.768133 0.573430
vt 0.568275 0.573432
vt 0.568275 0.569852
vt 0.768133 0.569850
vt 0.393183 0.956921
vt 0.393183 0.984152
vt 0.389761 0.987574
vt 0.389761 0.953498
vt 0.420414 0.956921
vt 0.423836 0.953498
vt 0.420414 0.984152
vt 0.423836 0.987574
vt 0.534769 0.945609
vt 0.525771 0.945252
vt 0.516521 0.948072
vt 0.552831 0.943692
vt 0.543971 0.945608
vn 0.0018 -0.0408 0.9992
vn 0.9991 -0.0416 0.0024
vn 0.0071 -0.0292 -0.9996
vn -0.9994 -0.0331 0.0041
vn 0.0000 0.0000 1.0000
vn 0.0944 0.9896 0.1082
vn -0.1305 0.9658 0.2239
vn -0.2239 0.9658 0.1305
vn -0.1082 0.9896 -0.0944
vn -1.0000 0.0000 0.0000
vn 1.0000 0.0000 0.0000
vn 0.0000 0.0000 -1.0000
vn 0.0000 1.0000 0.0000
vn -0.8519 -0.5237 0.0000
vn 0.0000 -0.5237 -0.8519
vn 0.8519 -0.5237 0.0000
vn 0.0000 -0.5237 0.8519
vn 0.0000 -1.0000 0.0000
vn -0.9988 0.0493 -0.0081
vn -0.0081 0.0493 -0.9988
vn 0.9995 0.0327 -0.0044
vn -0.0090 0.0266 0.9996
usemtl Material.003
s off
f 27/1/1 8/2/1 5/3/1 25/4/1
f 28/5/2 7/6/2 8/2/2 27/1/2
f 26/7/3 6/8/3 7/9/3 28/10/3
f 25/4/4 5/3/4 6/8/4 26/7/4
f 4/11/5 2/12/5 10/13/5 11/14/5
f 1/15/6 2/16/6 6/17/6 5/18/6
f 2/16/7 4/19/7 7/20/7 6/17/7
f 4/19/8 3/21/8 8/22/8 7/20/8
f 3/21/9 1/15/9 5/18/9 8/22/9
f 12/23/10 11/24/10 15/25/10 16/26/10
f 3/27/10 4/28/10 11/29/10 12/30/10
f 2/31/11 1/32/11 9/33/11 10/34/11
f 1/35/12 3/36/12 12/37/12 9/38/12
f 15/39/13 14/40/13 13/41/13 16/42/13
f 10/43/11 9/44/11 13/45/11 14/46/11
f 9/47/12 12/48/12 16/49/12 13/50/12
f 11/51/5 10/52/5 14/53/5 15/54/5
f 19/55/14 17/56/14 18/57/14 20/58/14
f 23/59/15 19/55/15 20/58/15 24/60/15
f 21/61/16 23/59/16 24/60/16 22/62/16
f 17/56/17 21/61/17 22/62/17 18/57/17
f 19/55/18 23/59/18 21/61/18 17/56/18
f 18/63/19 25/4/19 26/7/19 20/64/19
f 20/64/20 26/7/20 28/10/20 24/65/20
f 24/66/21 28/5/21 27/1/21 22/67/21
f 22/67/22 27/1/22 25/4/22 18/63/22
