# Blender v2.92.0 OBJ File: 'objects.blend'
# www.blender.org
mtllib landmark--circle__02.mtl
o circle__02_Cube.002
v -0.572686 0.080927 -1.677816
v -0.466728 0.205240 -2.181833
v -0.377225 0.217469 -2.189707
v -0.018870 1.692594 -1.195041
v -0.354888 0.819096 -2.036624
v -0.550307 0.722320 -1.511964
v 0.328689 0.860438 -1.820633
v 0.237798 0.783264 -1.396315
v 0.063790 0.785837 -1.367096
v 0.297631 0.209873 -1.525161
v 0.123730 0.127429 -1.519941
v 0.385648 0.313098 -1.943663
v 0.234594 0.258323 -2.051010
v 0.171588 0.852005 -1.917827
v -0.448309 0.811026 -2.004936
v 0.205907 0.786808 -1.426240
v 0.289397 0.852360 -1.802857
v -0.524054 1.577722 -1.363260
v -0.511765 0.726339 -1.532542
v -0.431360 1.697395 -1.777998
v -0.356844 1.701635 -1.818220
v 0.064183 0.795603 -1.409870
v -0.349065 0.807823 -1.994622
v 0.208154 1.696178 -1.650657
v 0.147440 1.342424 -1.300859
v 0.064430 1.726546 -1.687136
v 0.156183 0.841469 -1.878118
v -0.058732 -0.145384 2.714442
v -0.139121 -0.289710 2.009275
v -0.622663 1.989651 1.584281
v -0.895001 -0.180478 2.073089
v -0.564294 2.103228 2.081252
v -0.453382 2.136527 2.131078
v -0.776336 -0.041683 2.775024
v -0.822410 -0.050150 2.709858
v 0.205982 2.057824 2.078690
v 0.203971 2.096738 1.988266
v 0.170600 2.118097 2.066582
v 0.138925 1.925427 1.511024
v 0.094097 2.003575 1.499721
v 0.158680 2.015424 1.590973
v -0.539359 2.034318 1.565642
v 0.190122 -0.159975 -2.815174
v 0.406797 -0.107117 -2.605046
v 0.406797 0.166172 -2.673792
v 0.190122 0.118729 -2.885282
v 0.406797 0.311386 -0.941340
v 0.284344 0.341258 -0.822587
v 0.284344 0.568620 -0.879779
v 0.406797 0.541807 -0.999302
v -0.593203 -0.125445 -2.677906
v -0.451658 -0.159975 -2.815174
v -0.451658 0.118729 -2.885282
v -0.593203 0.149722 -2.747124
v -0.494411 0.341258 -0.822587
v -0.593203 0.317158 -0.918394
v -0.593203 0.546988 -0.976208
v -0.494411 0.568620 -0.879779
v 0.255013 -0.049980 -1.739702
v 0.468703 -0.026344 -1.561796
v 0.468703 0.199175 -1.561795
v 0.255013 0.227479 -1.739702
v 0.532519 -0.026345 -0.206165
v 0.436458 -0.026344 -0.110105
v 0.436458 0.161275 -0.110105
v 0.532519 0.163800 -0.206165
v -0.335926 -0.049980 -1.620732
v -0.248443 -0.049980 -1.739702
v -0.248443 0.227479 -1.739702
v -0.335926 0.223958 -1.620732
v -0.238266 -0.026344 -0.119952
v -0.315766 -0.026344 -0.197452
v -0.315766 0.163312 -0.197452
v -0.238266 0.161275 -0.119952
v 0.393926 -0.170557 1.556012
v 0.145359 1.036714 1.713309
v 0.220044 1.033966 1.645069
v 0.393926 -0.030584 2.013316
v 0.316154 -0.023118 2.037707
v 0.227234 0.872008 1.232007
v 0.138103 0.939763 1.216161
v 0.223132 0.947935 1.242859
v -0.283251 0.943092 1.209921
v 0.188058 0.544238 1.836955
v 0.189165 0.496556 1.819777
v 0.273455 0.469706 1.913997
v 0.350456 0.463155 1.878693
v 0.265394 0.474200 1.697209
v 0.263514 0.534797 1.780708
v -0.408569 -0.103948 1.591401
v -0.252009 -0.170557 1.556012
v -0.421742 0.985592 1.673197
v -0.263315 1.032750 1.714523
v -0.408601 0.012279 1.971124
v -0.251317 -0.023118 2.037707
v -0.421827 0.900052 1.284093
v -0.421928 0.903666 1.286014
v -0.422558 0.988729 1.658499
v -0.266915 1.041076 1.654952
v -0.415188 0.490974 1.824877
v -0.253840 0.505046 1.870060
v -0.712168 1.274958 1.747435
v -0.567790 1.417507 2.370501
v -0.625826 1.374087 2.222180
v -0.640692 1.448229 2.297497
v -0.652976 1.345049 2.328606
v 0.721995 1.916598 -1.262180
v 0.567607 2.559434 -1.068961
v -0.567607 2.561363 -1.107438
v 0.567607 3.037500 -0.643284
v -0.567607 2.986550 -0.639139
v 0.567607 3.164029 -0.023224
v -0.567607 3.157806 0.000000
v 0.567607 2.991516 0.620605
v 0.567607 1.916597 1.241209
v -0.567607 1.916597 1.241209
v -0.567607 1.295993 1.074919
v 0.567607 0.809830 0.675567
v -0.567607 0.841679 0.620605
v 0.567607 0.670058 0.019893
v -0.567607 0.675388 0.000001
v 0.567607 0.841678 -0.620604
v -0.567607 0.841678 -0.620604
v -0.567607 1.295992 -1.074918
v 0.567607 2.743805 0.868316
v 0.345601 2.924038 1.744938
v 0.567607 2.254977 1.150541
v 0.567607 1.228853 -1.007779
v 0.456724 0.909156 -1.744937
v 0.567607 1.387706 -1.099493
v -0.567607 2.102230 -1.198223
v -0.567607 1.916597 -1.198223
v -0.567607 1.756174 -1.198224
v -0.567607 2.780221 0.831899
v -0.341863 3.723268 1.007440
v -0.567607 3.068855 0.331971
v 0.694021 1.719302 -1.188344
v 0.694022 2.113893 -1.188344
v -0.470179 1.916597 -1.990289
v 0.567607 2.924038 -1.744938
v 0.567607 3.720039 -1.036165
v -0.567607 3.661535 -1.007440
v -0.567607 2.948619 -1.792643
v 0.567607 3.931478 0.000000
v -0.567607 3.931479 0.000000
v 0.567607 3.661535 1.007441
v -0.567607 1.916598 2.014881
v -0.567607 2.924038 1.744938
v 0.567607 1.916597 2.014881
v 0.567607 0.909157 1.744938
v -0.567607 0.909157 1.744938
v 0.567607 0.131630 1.078527
v -0.567607 0.171660 1.007441
v 0.567607 -0.098284 0.000001
v -0.567607 -0.098284 0.000001
v 0.567607 0.171659 -1.007439
v -0.567607 0.171659 -1.007439
v -0.567607 0.909156 -1.744937
v 0.567607 2.543428 1.846922
v 0.567607 3.202664 1.466312
v 0.567607 1.099255 -1.795874
v 0.567607 0.769993 -1.605775
v -0.567607 1.916597 -1.945533
v -0.567607 2.175406 -1.945533
v 0.567607 2.008375 -1.990289
v 0.518078 1.916597 -1.918170
v -0.567607 1.657789 -1.945533
v -0.567607 3.765237 0.620422
v -0.567607 3.378218 1.290757
v 0.567607 1.824819 -1.990289
v 0.567607 1.522459 1.135600
v 0.567607 1.143020 1.301374
v 0.567607 1.065428 0.894637
v 0.302788 1.273435 1.068874
v -0.567607 2.439434 1.101116
v -0.567607 2.587810 1.162575
v -0.567607 2.608773 1.003347
v -0.469584 2.512832 1.081449
vt 0.027788 0.906010
vt 0.023257 0.900814
vt 0.023862 0.899405
vt 0.027788 0.894987
vt 0.016952 0.902025
vt 0.021875 0.900567
vt 0.022085 0.901059
vt 0.018423 0.903861
vt 0.017737 0.966426
vt 0.017737 0.982062
vt 0.006161 0.982062
vt 0.005543 0.980179
vt 0.005543 0.966443
vt 0.038533 0.817634
vt 0.039910 0.815428
vt 0.039615 0.818034
vt 0.051716 0.836695
vt 0.040138 0.836885
vt 0.040823 0.835958
vt 0.051100 0.835721
vt 0.053337 0.832352
vt 0.052205 0.832132
vt 0.504274 0.026466
vt 0.500000 0.000000
vt 0.500000 0.000000
vt 0.504274 0.026466
vt 0.020205 0.895345
vt 0.022207 0.898981
vt 0.020886 0.894913
vt 0.022472 0.898798
vt 0.053337 0.815691
vt 0.052578 0.816559
vt 0.006833 0.962423
vt 0.016446 0.962423
vt 0.024963 0.906884
vt 0.022932 0.901198
vt 0.038186 0.831835
vt 0.039328 0.831682
vt 0.028918 0.907041
vt 0.031724 0.906898
vt 0.031724 0.912991
vt 0.028939 0.910947
vt 0.023863 0.907049
vt 0.027923 0.907239
vt 0.028110 0.913585
vt 0.024427 0.912973
vt 0.021446 0.913499
vt 0.020466 0.907274
vt 0.055882 0.855851
vt 0.055882 0.870161
vt 0.042860 0.868387
vt 0.044301 0.855201
vt 0.042728 0.856778
vt 0.011719 0.900650
vt 0.052478 0.900650
vt 0.050103 0.909280
vt 0.013112 0.909279
vt 0.031675 0.914078
vt 0.020865 0.913507
vt 0.017880 0.914020
vt 0.016952 0.907851
vt 0.005543 0.962407
vt 0.005543 0.945595
vt 0.036078 0.945595
vt 0.037707 0.947226
vt 0.037707 0.962406
vt 0.039784 0.856026
vt 0.041898 0.858199
vt 0.041744 0.869587
vt 0.038961 0.872295
vt 0.006854 0.871863
vt 0.008208 0.855672
vt 0.011622 0.904080
vt 0.008800 0.919473
vt 0.016938 0.924768
vt 0.016938 0.908682
vt 0.014653 0.887541
vt 0.011939 0.902349
vt 0.016938 0.906899
vt 0.016938 0.891407
vt 0.009058 0.902251
vt 0.005359 0.917295
vt 0.042701 0.855201
vt 0.018257 0.990960
vt 0.025907 0.954350
vt 0.024722 0.986041
vt 0.042701 0.873342
vt 0.008224 0.923734
vt 0.015273 0.893306
vt 0.014667 0.892604
vt 0.013396 0.893868
vt 0.012905 0.894567
vt 0.009167 0.933737
vt 0.002389 0.871762
vt 0.002927 0.857448
vt 0.011498 0.893810
vt 0.023151 0.893810
vt 0.023151 0.919833
vt 0.011498 0.919833
vt 0.021727 0.850982
vt 0.017537 0.855173
vt 0.005126 0.855173
vt 0.002389 0.852435
vt 0.002389 0.817339
vt 0.004299 0.815428
vt 0.019359 0.815428
vt 0.021727 0.817797
vt 0.030930 0.893216
vt 0.032357 0.893216
vt 0.032357 0.894768
vt 0.030902 0.894768
vt 0.031154 0.884531
vt 0.032357 0.884531
vt 0.031170 0.883654
vt 0.032357 0.883654
vt 0.037724 0.947872
vt 0.040000 0.945595
vt 0.050321 0.945595
vt 0.053806 0.949080
vt 0.053806 0.976669
vt 0.051836 0.978638
vt 0.039313 0.978638
vt 0.037724 0.977050
vt 0.054265 0.928155
vt 0.014495 0.928155
vt 0.014495 0.919786
vt 0.054265 0.919786
vt 0.014495 0.884668
vt 0.054265 0.884668
vt 0.011419 0.900716
vt 0.051189 0.900716
vt 0.051189 0.904645
vt 0.011419 0.904645
vt 0.031170 0.879712
vt 0.032357 0.879712
vt 0.043573 0.893810
vt 0.043573 0.905061
vt 0.023159 0.905061
vt 0.023159 0.893810
vt 0.022611 0.819086
vt 0.026702 0.815555
vt 0.036437 0.815428
vt 0.038158 0.817707
vt 0.038158 0.845258
vt 0.036681 0.846778
vt 0.023638 0.847156
vt 0.021754 0.845325
vt 0.029209 0.895057
vt 0.029209 0.896198
vt 0.027802 0.896318
vt 0.027802 0.894913
vt 0.036080 0.895236
vt 0.036080 0.896198
vt 0.036768 0.895248
vt 0.036768 0.896198
vt 0.019186 0.954217
vt 0.023867 0.951939
vt 0.045087 0.951939
vt 0.052252 0.955426
vt 0.052252 0.983034
vt 0.048203 0.985005
vt 0.022453 0.985005
vt 0.019186 0.983415
vt 0.054265 0.928155
vt 0.014495 0.928155
vt 0.014495 0.919786
vt 0.054265 0.919786
vt 0.014495 0.884668
vt 0.054265 0.884668
vt 0.375000 0.975302
vt 0.625000 0.975302
vt 0.625000 1.000000
vt 0.375000 1.000000
vt 0.040184 0.895248
vt 0.040184 0.896198
vt 0.017952 0.894899
vt 0.024292 0.887007
vt 0.024527 0.887020
vt 0.024618 0.887077
vt 0.030888 0.892370
vt 0.053364 0.817889
vt 0.056822 0.819371
vt 0.059415 0.832089
vt 0.030173 0.882275
vt 0.026023 0.885521
vt 0.023761 0.885789
vt 0.019360 0.879712
vt 0.030888 0.883194
vt 0.026347 0.885850
vt 0.017754 0.978058
vt 0.017754 0.962423
vt 0.029330 0.962423
vt 0.029947 0.964306
vt 0.029947 0.978042
vt 0.023159 0.910147
vt 0.027831 0.905068
vt 0.027831 0.910530
vt 0.024578 0.887005
vt 0.024587 0.886808
vt 0.025805 0.886203
vt 0.057423 0.851028
vt 0.054911 0.851828
vt 0.042505 0.851780
vt 0.043360 0.838656
vt 0.057423 0.838913
vt 0.043411 0.836925
vt 0.055223 0.836913
vt 0.025545 0.885945
vt 0.024552 0.886760
vt 0.024332 0.886695
vt 0.029964 0.972913
vt 0.031168 0.973147
vt 0.032398 0.976462
vt 0.030252 0.975184
vt 0.053601 0.815428
vt 0.059415 0.816003
vt 0.032398 0.962423
vt 0.025887 0.886526
vt 0.028657 0.982062
vt 0.019045 0.982062
vt 0.613933 0.223533
vt 0.614576 0.222097
vt 0.923387 0.605037
vt 0.016952 0.892671
vt 0.024193 0.886944
vt 0.038186 0.849691
vt 0.038649 0.838588
vt 0.038639 0.838148
vt 0.023422 0.886235
vt 0.017557 0.882732
vt 0.024208 0.886736
vt 0.024207 0.886751
vt 0.024196 0.886942
vt 0.013808 0.894033
vt 0.013035 0.886084
vt 0.009478 0.900547
vt 0.025907 0.997245
vt 0.034011 0.837746
vt 0.039213 0.863981
vt 0.019424 0.833575
vt 0.013681 0.879712
vt 0.013870 0.892169
vt 0.039213 0.828620
vt 0.019202 0.925290
vt 0.012361 0.925716
vt 0.011711 0.924270
vt 0.011690 0.919868
vt 0.019182 0.919786
vt 0.011710 0.912894
vt 0.019194 0.912759
vt 0.011762 0.907038
vt 0.019249 0.907054
vt 0.011002 0.929282
vt 0.005030 0.929700
vt 0.003414 0.926958
vt 0.003174 0.923171
vt 0.009156 0.923139
vt 0.010758 0.925455
vt 0.010615 0.920537
vt 0.003186 0.916303
vt 0.010623 0.916264
vt 0.003597 0.910558
vt 0.011034 0.910519
vt 0.017235 0.955475
vt 0.009798 0.955514
vt 0.010498 0.952431
vt 0.017891 0.951994
vt 0.014884 0.968073
vt 0.022373 0.968595
vt 0.022343 0.974523
vt 0.014855 0.974524
vt 0.022343 0.981403
vt 0.014855 0.981403
vt 0.010500 0.867406
vt 0.011140 0.867610
vt 0.010510 0.868648
vt 0.009538 0.867350
vt 0.007936 0.865034
vt 0.009395 0.862432
vt 0.025450 0.965324
vt 0.032938 0.965323
vt 0.032969 0.971310
vt 0.026212 0.971311
vt 0.025475 0.970181
vt 0.018054 0.867120
vt 0.018791 0.868250
vt 0.018069 0.868909
vt 0.019249 0.928771
vt 0.018529 0.929451
vt 0.011772 0.929437
vt 0.011731 0.926754
vt 0.019209 0.926170
vt 0.017989 0.868065
vt 0.017663 0.867297
vt 0.011690 0.933067
vt 0.004253 0.933106
vt 0.003829 0.930775
vt 0.021900 0.825375
vt 0.024582 0.826591
vt 0.025510 0.828986
vt 0.022373 0.974578
vt 0.022986 0.968073
vt 0.022986 0.974915
vt 0.010490 0.866165
vt 0.015916 0.983421
vt 0.015916 0.980572
vt 0.042660 0.985962
vt 0.040012 0.987314
vt 0.035675 0.888157
vt 0.033779 0.891929
vt 0.028849 0.890760
vt 0.032006 0.884479
vt 0.022010 0.900155
vt 0.023920 0.896446
vt 0.028849 0.897640
vt 0.025647 0.903860
vt 0.039409 0.886292
vt 0.038247 0.881362
vt 0.023920 0.892081
vt 0.028849 0.890760
vt 0.043806 0.886292
vt 0.045127 0.881363
vt 0.041266 0.977456
vt 0.043036 0.979226
vt 0.024417 0.976899
vt 0.023046 0.976904
vt 0.023978 0.977441
vt 0.017340 0.978104
vt 0.037637 0.982284
vt 0.043305 0.984616
vt 0.013893 0.886292
vt 0.010222 0.888411
vt 0.006614 0.884802
vt 0.012572 0.881362
vt 0.008103 0.892081
vt 0.003174 0.890760
vt 0.043942 0.902109
vt 0.047881 0.900099
vt 0.051606 0.903732
vt 0.045127 0.907038
vt 0.008103 0.896319
vt 0.003174 0.897640
vt 0.039568 0.902109
vt 0.038247 0.907038
vt 0.010222 0.899989
vt 0.006614 0.903598
vt 0.013893 0.902109
vt 0.012572 0.907038
vt 0.048440 0.890080
vt 0.045807 0.887447
vt 0.048834 0.883503
vt 0.052384 0.887053
vt 0.049595 0.892081
vt 0.054524 0.890761
vt 0.035584 0.899447
vt 0.036440 0.900303
vt 0.033413 0.904247
vt 0.031640 0.902474
vt 0.018057 0.901835
vt 0.019240 0.901518
vt 0.020982 0.906154
vt 0.019333 0.906596
vt 0.029349 0.955848
vt 0.030076 0.956395
vt 0.025069 0.958511
vt 0.024455 0.958048
vt 0.017035 0.902108
vt 0.017684 0.907038
vt 0.022786 0.890118
vt 0.020094 0.887425
vt 0.023121 0.883481
vt 0.026731 0.887091
vt 0.033636 0.838699
vt 0.033280 0.839535
vt 0.027942 0.840077
vt 0.028243 0.839370
vt 0.034452 0.897486
vt 0.029163 0.898183
vt 0.033779 0.894972
vt 0.028849 0.897013
vt 0.048840 0.898096
vt 0.051299 0.896907
vt 0.054524 0.897640
vt 0.049595 0.894773
vt 0.018303 0.885647
vt 0.017463 0.886292
vt 0.019451 0.881362
vt 0.018709 0.886626
vt 0.037071 0.987314
vt 0.017340 0.985889
vt 0.019808 0.987314
vt 0.034968 0.986099
vt 0.034393 0.985524
vt 0.021921 0.987314
vt 0.032843 0.945243
vt 0.033083 0.944680
vt 0.022608 0.987130
vt 0.023403 0.986916
vt 0.025266 0.986000
vt 0.033179 0.982515
vt 0.033179 0.980470
vt 0.034453 0.977933
vt 0.026550 0.983506
vt 0.036964 0.976679
vt 0.026550 0.980572
vt 0.039920 0.976679
vt 0.025788 0.979252
vt 0.049595 0.843992
vt 0.051299 0.846126
vt 0.048840 0.847315
vt 0.040410 0.843847
vt 0.043813 0.980572
vt 0.043813 0.982381
vt 0.019808 0.976679
vt 0.017463 0.835511
vt 0.018303 0.834866
vt 0.018709 0.835845
vt 0.020748 0.835838
vt 0.022209 0.976679
vn -0.1995 -0.2388 0.9504
vn 0.5024 0.2394 -0.8308
vn 0.1136 -0.9699 -0.2153
vn 0.0043 0.9660 0.2586
vn -0.0893 0.9837 0.1559
vn 0.0579 0.9861 0.1554
vn -0.1610 0.9736 0.1620
vn 0.2000 0.2346 -0.9513
vn -0.2318 0.2637 -0.9363
vn -0.9789 0.0833 -0.1864
vn 0.0074 0.9841 0.1774
vn 0.4208 -0.8974 -0.1331
vn 0.1434 -0.2074 0.9677
vn -0.1385 0.9820 0.1286
vn -0.1176 0.9628 0.2432
vn 0.9745 0.0525 0.2181
vn 0.9732 0.0528 0.2237
vn -0.2182 -0.2207 0.9506
vn -0.9606 0.0094 -0.2777
vn -0.1744 0.9759 0.1315
vn -0.0582 0.9983 -0.0026
vn 0.1351 -0.2135 0.9676
vn 0.3784 0.2165 -0.9000
vn 0.7503 0.5424 0.3781
vn 0.2401 0.2092 -0.9479
vn -0.4757 0.1663 -0.8637
vn -0.1222 -0.9695 0.2124
vn 0.0250 0.9811 -0.1919
vn -0.7036 0.2737 0.6558
vn -0.5272 0.3325 0.7820
vn -0.9863 0.1425 0.0833
vn 0.8247 0.5259 0.2080
vn -0.8705 -0.4256 0.2472
vn 0.7446 0.3444 -0.5717
vn 0.9863 -0.1425 -0.0833
vn -0.3493 0.9264 -0.1407
vn -0.0000 -0.2440 -0.9698
vn 0.0000 0.9757 -0.2189
vn 0.7071 -0.1725 -0.6857
vn 1.0000 -0.0000 0.0000
vn 0.7071 0.1725 0.6857
vn -0.0000 -0.9698 0.2439
vn -0.7071 -0.1725 -0.6857
vn -1.0000 -0.0000 0.0000
vn -0.7071 0.1725 0.6857
vn 0.0000 0.2439 0.9698
vn 0.0000 0.0000 -1.0000
vn 0.0130 0.9992 0.0386
vn 0.6398 0.0000 -0.7685
vn 0.9989 0.0000 -0.0470
vn 0.7071 -0.0000 0.7071
vn 0.0134 -0.9998 0.0124
vn -0.8056 -0.0000 -0.5924
vn -0.9999 -0.0000 0.0142
vn -0.7071 0.0000 0.7071
vn -0.0146 -0.0000 0.9999
vn 0.0003 -0.2949 -0.9555
vn 0.0454 0.9707 0.2360
vn -0.0298 0.2731 0.9615
vn 0.3678 0.2655 0.8912
vn -0.0000 -0.9562 0.2927
vn 0.2829 0.1507 -0.9472
vn 0.9964 0.0840 -0.0103
vn 0.0073 0.9765 -0.2154
vn 0.0041 0.9989 0.0459
vn 0.0254 0.2651 0.9639
vn 0.6303 0.2472 0.7360
vn 0.5921 -0.5399 0.5983
vn 0.1982 0.9801 0.0129
vn 0.0999 -0.3352 0.9368
vn 0.9768 0.2068 -0.0553
vn 0.9977 0.0627 -0.0274
vn 0.9964 0.0810 -0.0248
vn -0.3218 -0.9053 0.2773
vn -0.5257 0.3877 -0.7572
vn -0.3536 -0.2826 -0.8917
vn -0.3404 0.9189 -0.1992
vn -0.3158 0.9347 0.1631
vn -0.3008 0.2814 0.9112
vn -0.2993 0.2703 0.9151
vn -0.9999 -0.0128 0.0032
vn 0.1106 0.2951 0.9490
vn -0.6845 -0.5825 0.4384
vn -0.7406 0.6719 -0.0056
vn -0.1131 -0.2052 -0.9722
vn -0.6580 0.7521 0.0373
vn -0.1115 -0.2036 -0.9727
vn 0.1347 0.2546 0.9576
vn 0.0162 0.2215 -0.9750
vn -0.0046 0.7036 -0.7106
vn -0.0280 0.9730 -0.2292
vn 0.0078 0.6913 0.7226
vn 0.0000 0.2588 0.9659
vn -0.0000 -0.2588 0.9659
vn -0.0349 -0.6793 0.7330
vn -0.0244 -0.9722 0.2330
vn -0.0000 -0.9659 -0.2588
vn -0.4174 0.0000 -0.9087
vn 0.4174 0.4544 0.7870
vn -0.0000 -0.7071 -0.7071
vn 0.4174 -0.4544 -0.7870
vn -0.0019 -0.2470 -0.9690
vn 0.0562 0.6355 -0.7701
vn 0.0106 0.9732 0.2298
vn -0.5714 0.7107 0.4103
vn 0.0562 -0.6355 -0.7701
vn 0.0236 0.9722 -0.2331
vn -0.0408 -0.5813 -0.8127
vn 0.0347 0.6815 -0.7310
vn 0.9739 -0.0713 -0.2155
vn 0.9739 0.0713 -0.2155
vn 0.9884 -0.1361 -0.0668
vn 0.9918 0.1097 -0.0656
vn 0.0000 0.9659 0.2588
vn -0.0000 0.7071 0.7071
vn -0.0061 0.3281 0.9446
vn 0.0237 0.2003 0.9794
vn 0.0217 -0.1878 0.9820
vn -0.0187 -0.2287 0.9733
vn 0.0044 -0.7034 0.7107
vn 0.0273 -0.9728 0.2301
vn 0.0427 -0.8118 -0.5824
vn 0.7093 0.3287 -0.6235
vn 0.0000 0.2588 -0.9659
vn -0.7397 -0.3365 -0.5828
vn 0.0000 -0.2588 -0.9659
usemtl texture.001
s off
f 11/1/1 9/2/1 6/3/1 1/4/1
f 13/5/2 14/6/2 7/7/2 12/8/2
f 11/9/3 1/10/3 2/11/3 3/12/3 13/13/3
f 5/14/4 15/15/4 23/16/4
f 8/17/5 7/18/5 17/19/5 16/20/5
f 9/21/6 8/17/6 16/20/6 22/22/6
f 7/23/7 14/24/7 27/25/7 17/26/7
f 3/27/8 5/28/8 14/6/8 13/5/8
f 5/28/9 3/27/9 2/29/9 15/30/9
f 6/3/10 15/30/10 2/29/10 1/4/10
f 15/15/11 6/31/11 19/32/11 23/16/11
f 11/9/12 13/13/12 12/33/12 10/34/12
f 10/35/13 8/36/13 9/2/13 11/1/13
f 6/31/14 9/21/14 22/22/14 19/32/14
f 14/37/15 5/14/15 23/16/15 27/38/15
f 12/8/16 7/7/16 8/36/16 10/35/16
f 16/39/17 17/40/17 24/41/17 25/42/17
f 19/43/18 22/44/18 4/45/18 18/46/18
f 18/46/19 20/47/19 23/48/19 19/43/19
f 18/49/20 4/50/20 26/51/20 20/52/20
f 20/52/21 26/51/21 21/53/21
f 22/44/22 16/39/22 25/42/22 4/45/22
f 27/54/23 26/55/23 24/56/23 17/57/23
f 26/58/24 4/45/24 25/42/24 24/41/24
f 23/48/25 21/59/25 26/60/25 27/61/25
f 21/59/26 23/48/26 20/47/26
f 29/62/27 28/63/27 34/64/27 35/65/27 31/66/27
f 38/67/28 37/68/28 41/69/28 40/70/28 42/71/28 33/72/28
f 106/73/29 35/74/29 34/75/29 103/76/29
f 32/77/30 105/78/30 103/79/30 33/80/30
f 35/74/31 106/73/31 102/81/31 31/82/31
f 36/83/32 37/68/32 38/67/32
f 105/84/33 102/85/33 104/86/33
f 39/87/34 40/70/34 41/69/34
f 29/88/35 39/89/35 41/90/35 37/91/35 36/92/35 28/93/35
f 33/72/36 42/71/36 30/94/36 32/95/36
f 52/96/37 53/97/37 46/98/37 43/99/37
f 45/100/38 46/101/38 53/102/38 54/103/38 57/104/38 58/105/38 49/106/38 50/107/38
f 45/108/39 44/109/39 43/110/39 46/111/39
f 44/109/40 45/108/40 50/112/40 47/113/40
f 49/114/41 48/115/41 47/113/41 50/112/41
f 51/116/42 52/117/42 43/118/42 44/119/42 47/120/42 48/121/42 55/122/42 56/123/42
f 53/124/43 52/125/43 51/126/43 54/127/43
f 56/128/44 57/129/44 54/127/44 51/126/44
f 55/130/45 58/131/45 57/132/45 56/133/45
f 48/115/46 49/114/46 58/134/46 55/135/46
f 68/136/47 69/137/47 62/138/47 59/139/47
f 61/140/48 62/141/48 69/142/48 70/143/48 73/144/48 74/145/48 65/146/48 66/147/48
f 61/148/49 60/149/49 59/150/49 62/151/49
f 60/149/50 61/148/50 66/152/50 63/153/50
f 65/154/51 64/155/51 63/153/51 66/152/51
f 67/156/52 68/157/52 59/158/52 60/159/52 63/160/52 64/161/52 71/162/52 72/163/52
f 69/164/53 68/165/53 67/166/53 70/167/53
f 72/168/54 73/169/54 70/167/54 67/166/54
f 71/170/55 74/171/55 73/172/55 72/173/55
f 64/155/56 65/154/56 74/174/56 71/175/56
f 91/176/57 83/177/57 81/178/57 80/179/57 75/180/57
f 86/181/58 85/182/58 101/183/58
f 79/184/59 86/185/59 101/186/59 95/187/59
f 86/185/60 79/184/60 78/188/60 87/189/60
f 91/190/61 75/191/61 78/192/61 79/193/61 95/194/61
f 80/195/62 81/196/62 82/197/62
f 82/198/63 77/199/63 89/200/63
f 82/201/64 81/202/64 83/203/64 99/204/64 77/205/64
f 77/205/65 99/204/65 93/206/65 76/207/65
f 84/208/66 76/209/66 93/210/66 101/186/66
f 76/209/67 84/208/67 89/200/67 77/199/67
f 84/211/68 85/212/68 88/213/68 89/214/68
f 85/182/69 86/181/69 87/215/69 88/216/69
f 85/212/70 84/211/70 101/217/70
f 75/180/71 80/179/71 88/218/71 87/189/71
f 80/179/72 82/198/72 89/200/72 88/218/72
f 78/188/73 75/180/73 87/189/73
f 91/190/74 95/194/74 94/219/74 90/220/74
f 96/221/75 97/222/75 83/223/75
f 90/224/76 96/225/76 83/177/76 91/176/76
f 99/204/77 83/203/77 97/226/77 98/227/77
f 93/206/78 99/204/78 98/227/78 92/228/78
f 95/187/79 101/186/79 100/229/79 94/230/79
f 101/186/80 93/210/80 92/231/80 100/229/80
f 94/230/81 100/229/81 92/231/81 98/232/81 97/233/81 96/225/81 90/224/81
f 36/92/82 38/234/82 33/80/82 103/76/82
f 105/78/31 32/77/31 30/235/31 102/236/31
f 104/86/83 103/237/83 105/84/83
f 104/238/84 102/239/84 106/240/84
f 102/236/85 30/235/85 42/241/85 40/242/85 39/89/85 29/88/85
f 106/240/86 103/243/86 104/238/86
f 31/82/87 102/236/87 29/88/87
f 28/93/88 36/92/88 103/76/88 34/75/88
f 165/244/89 139/245/89 164/246/89 143/247/89 140/248/89
f 140/248/90 143/247/90 142/249/90 141/250/90
f 141/250/91 142/249/91 145/251/91 144/252/91
f 146/253/92 135/254/92 169/255/92 148/256/92 126/257/92 160/258/92
f 159/259/93 126/257/93 148/256/93 147/260/93 149/261/93
f 149/261/94 147/260/94 151/262/94 150/263/94
f 150/264/95 151/265/95 153/266/95 152/267/95
f 152/268/96 153/269/96 155/270/96 154/271/96
f 154/271/97 155/270/97 157/272/97 156/273/97
f 163/274/98 139/275/98 167/276/98
f 160/277/99 126/278/99 159/279/99
f 156/280/100 157/281/100 158/282/100 129/283/100 162/284/100
f 162/285/101 129/286/101 161/287/101
f 161/288/102 129/289/102 158/290/102 167/291/102 139/245/102 170/292/102
f 170/293/103 139/275/103 166/294/103
f 144/295/104 145/296/104 168/297/104 135/254/104 146/253/104
f 169/298/105 135/299/105 168/300/105
f 166/301/106 139/302/106 165/303/106
f 164/304/98 139/275/98 163/274/98
f 121/305/107 119/306/107 118/307/107 120/308/107
f 110/309/40 108/310/40 140/311/40 141/312/40
f 109/313/44 111/314/44 142/315/44 143/316/44
f 112/317/40 110/309/40 141/312/40 144/318/40
f 111/314/44 113/319/44 145/320/44 142/315/44
f 114/321/40 112/317/40 144/318/40 146/322/40
f 125/323/108 127/324/108 178/325/108 177/326/108 134/327/108
f 119/306/109 117/328/109 174/329/109 173/330/109 118/307/109
f 116/331/44 117/332/44 151/333/44 147/334/44
f 117/332/44 119/335/44 153/336/44 151/333/44
f 120/337/40 118/338/40 152/339/40 154/340/40
f 119/335/44 121/341/44 155/342/44 153/336/44
f 122/343/40 120/337/40 154/340/40 156/344/40
f 121/341/44 123/345/44 157/346/44 155/342/44
f 123/345/44 124/347/44 158/348/44 157/346/44
f 127/349/40 125/350/40 160/351/40 159/352/40
f 125/350/40 114/321/40 146/322/40 160/351/40
f 115/353/40 127/349/40 159/352/40 149/354/40
f 130/355/40 128/356/40 162/357/40 161/358/40
f 128/356/40 122/343/40 156/344/40 162/357/40
f 132/359/44 131/360/44 164/361/44 163/362/44
f 138/363/110 107/364/110 166/365/110 165/366/110
f 133/367/44 132/359/44 163/362/44 167/368/44
f 131/360/44 109/313/44 143/316/44 164/361/44
f 124/347/44 133/367/44 167/368/44 158/348/44
f 136/369/44 134/370/44 169/371/44 168/372/44
f 113/319/44 136/369/44 168/372/44 145/320/44
f 107/373/111 137/374/111 170/375/111 166/376/111
f 137/377/112 130/355/112 161/358/112 170/378/112
f 108/310/113 138/379/113 165/380/113 140/311/113
f 118/338/40 173/381/40 172/382/40 150/383/40 152/339/40
f 172/382/40 171/384/40 115/353/40 149/354/40 150/383/40
f 176/385/44 175/386/44 116/331/44 147/334/44 148/387/44
f 134/370/44 177/388/44 176/385/44 148/387/44 169/371/44
f 121/305/114 120/308/114 122/389/114 123/390/114
f 124/391/115 123/390/115 122/389/115 128/392/115
f 128/392/116 130/393/116 133/394/116 124/391/116
f 133/394/117 137/395/117 107/396/117 132/397/117
f 132/397/118 107/396/118 138/363/118 131/398/118
f 109/399/119 131/398/119 138/400/119 108/401/119
f 108/401/120 110/402/120 111/403/120 109/399/120
f 110/402/121 112/404/121 113/405/121 111/403/121
f 112/404/97 114/406/97 136/407/97 113/405/97
f 125/323/122 134/327/122 136/407/122 114/406/122
f 137/395/93 133/394/93 130/393/93
f 171/408/123 172/409/123 173/410/123 174/411/123
f 115/412/124 171/413/124 174/329/124 117/328/124 116/414/124
f 175/415/125 176/416/125 177/417/125 178/418/125
f 116/414/126 175/419/126 178/325/126 127/324/126 115/412/126
