# Blender v2.92.0 OBJ File: 'objects.blend'
# www.blender.org
mtllib landmark--throne__01.mtl
o throne01_Cube.005
v 0.772301 0.226542 -1.700600
v 0.780837 0.170081 -0.983038
v 0.665548 0.149572 -0.944764
v -0.559796 2.219289 -1.487556
v 0.414163 0.952516 -0.878595
v 0.505196 1.084006 -1.633781
v -0.549898 0.825492 -0.957620
v -0.562614 0.908295 -1.550546
v -0.350788 0.986185 -1.631427
v -0.433012 0.118816 -1.614207
v -0.189005 0.081212 -1.700600
v -0.425973 0.071927 -1.018379
v -0.178983 0.021896 -0.944764
v -0.311739 0.839629 -0.878843
v 0.524847 0.987938 -0.946252
v -0.512116 0.914274 -1.519438
v -0.503614 0.836020 -0.993682
v 0.179326 2.203904 -1.453888
v 0.462005 1.067674 -1.596081
v 0.174433 2.177311 -0.854667
v 0.092073 2.141133 -0.782718
v -0.338828 0.983595 -1.573085
v 0.394934 0.950633 -0.934988
v -0.689768 1.982407 -0.850903
v -0.637261 1.679644 -1.458547
v -0.501179 2.061437 -0.829096
v -0.303162 0.845760 -0.937514
v 0.045340 0.242256 -1.000000
v -1.000000 0.242256 -1.000000
v -1.019115 4.619810 1.000000
v -1.000000 0.242256 1.000000
v -0.278718 4.642684 1.000000
v -0.181352 4.711547 0.737744
v 0.045340 0.242256 0.898726
v -0.056053 0.242256 1.000000
v -0.171978 4.741589 -1.000000
v -0.288179 4.852314 -1.000000
v -0.177326 4.852314 -0.889147
v -1.018526 4.710326 -1.000000
v -1.019115 4.852313 -0.858011
v -0.877126 4.852313 -1.000000
v -1.019115 4.732013 0.798157
v 0.773892 0.301723 -1.021878
v 0.990567 0.301723 -0.805203
v 0.990567 0.583527 -0.805203
v 0.773892 0.589110 -1.021878
v 0.990567 0.301723 0.910333
v 0.868114 0.301723 1.032785
v 0.868114 0.536168 1.032785
v 0.990567 0.539323 0.910333
v -0.009433 0.301723 -0.880333
v 0.132112 0.301723 -1.021878
v 0.132112 0.589110 -1.021878
v -0.009433 0.585463 -0.880333
v 0.089359 0.301723 1.032785
v -0.009433 0.301723 0.933993
v -0.009433 0.538713 0.933992
v 0.089359 0.536168 1.032785
v 0.488830 0.478670 -0.809563
v 0.702520 0.502306 -0.631657
v 0.702519 0.727825 -0.631657
v 0.488830 0.756129 -0.809563
v 0.766335 0.502306 0.723974
v 0.670275 0.502306 0.820034
v 0.670275 0.689925 0.820034
v 0.766335 0.692450 0.723974
v -0.102110 0.478670 -0.690593
v -0.014626 0.478670 -0.809563
v -0.014626 0.756129 -0.809563
v -0.102110 0.752608 -0.690593
v -0.004449 0.502306 0.810187
v -0.081949 0.502306 0.732688
v -0.081949 0.691962 0.732688
v -0.004449 0.689925 0.810187
v 0.609815 0.049238 1.002632
v 0.235684 1.791879 1.569366
v 0.348095 1.806693 1.467645
v 0.609815 0.129807 1.717939
v 0.492755 0.134105 1.756092
v 0.358918 1.681356 0.811709
v 0.224762 1.785985 0.807011
v 0.352744 1.790689 0.848773
v -0.409438 1.792635 0.798699
v 0.299952 1.029051 1.616048
v 0.301619 0.963258 1.577440
v 0.428488 0.897465 1.709411
v 0.544385 0.897541 1.655366
v 0.416354 0.964093 1.389916
v 0.413525 1.030644 1.530218
v -0.598060 0.137995 1.073420
v -0.362414 0.049237 1.002632
v -0.617887 1.727341 1.495876
v -0.379431 1.785678 1.570065
v -0.598108 0.204896 1.667376
v -0.361372 0.134105 1.756092
v -0.618015 1.708437 0.896531
v -0.618167 1.713252 0.900371
v -0.619115 1.736049 1.474998
v -0.384849 1.814478 1.484233
v -0.608023 0.953589 1.583442
v -0.365170 0.961907 1.654184
v -1.009735 3.177284 1.000000
v -0.070029 3.223245 0.816799
v -0.300245 3.188691 0.917796
v -0.175463 3.294310 1.000000
v -0.163390 3.083072 1.000000
vt 0.027788 0.906010
vt 0.023257 0.900814
vt 0.023862 0.899405
vt 0.027788 0.894987
vt 0.016952 0.902025
vt 0.021875 0.900567
vt 0.022085 0.901059
vt 0.018423 0.903861
vt 0.017737 0.966426
vt 0.017737 0.982062
vt 0.006161 0.982062
vt 0.005543 0.980179
vt 0.005543 0.966443
vt 0.038533 0.817634
vt 0.039910 0.815428
vt 0.039615 0.818034
vt 0.051716 0.836695
vt 0.040138 0.836885
vt 0.040823 0.835958
vt 0.051100 0.835721
vt 0.053337 0.832352
vt 0.052205 0.832132
vt 0.504274 0.026466
vt 0.500000 0.000000
vt 0.500000 0.000000
vt 0.504274 0.026466
vt 0.020205 0.895345
vt 0.022207 0.898981
vt 0.020886 0.894913
vt 0.022472 0.898798
vt 0.053337 0.815691
vt 0.052578 0.816559
vt 0.006833 0.962423
vt 0.016446 0.962423
vt 0.024963 0.906884
vt 0.022932 0.901198
vt 0.038186 0.831835
vt 0.039328 0.831682
vt 0.028918 0.907041
vt 0.031724 0.906898
vt 0.031724 0.912991
vt 0.028939 0.910947
vt 0.023863 0.907049
vt 0.027923 0.907239
vt 0.028110 0.913585
vt 0.024427 0.912973
vt 0.021446 0.913499
vt 0.020466 0.907274
vt 0.055882 0.855851
vt 0.055882 0.870161
vt 0.042860 0.868387
vt 0.044301 0.855201
vt 0.042728 0.856778
vt 0.625000 0.000000
vt 0.617719 0.026467
vt 0.031675 0.914078
vt 0.020865 0.913507
vt 0.017880 0.914020
vt 0.016952 0.907851
vt 0.005543 0.962407
vt 0.005543 0.945595
vt 0.036078 0.945595
vt 0.037707 0.947226
vt 0.037707 0.962406
vt 0.039784 0.856026
vt 0.041898 0.858199
vt 0.041744 0.869587
vt 0.038961 0.872295
vt 0.006854 0.871863
vt 0.008208 0.855672
vt 0.011622 0.904080
vt 0.008800 0.919473
vt 0.016938 0.924768
vt 0.016938 0.908682
vt 0.014653 0.887541
vt 0.011939 0.902349
vt 0.016938 0.906899
vt 0.016938 0.891407
vt 0.009058 0.902251
vt 0.005359 0.917295
vt 0.042701 0.855201
vt 0.018257 0.990960
vt 0.025907 0.954350
vt 0.024722 0.986041
vt 0.042701 0.873342
vt 0.008224 0.923734
vt 0.015273 0.893306
vt 0.014667 0.892604
vt 0.013396 0.893868
vt 0.012905 0.894567
vt 0.009167 0.933737
vt 0.002389 0.871762
vt 0.002927 0.857448
vt 0.011498 0.893810
vt 0.023151 0.893810
vt 0.023151 0.919833
vt 0.011498 0.919833
vt 0.021727 0.850982
vt 0.017537 0.855173
vt 0.005126 0.855173
vt 0.002389 0.852435
vt 0.002389 0.817339
vt 0.004299 0.815428
vt 0.019359 0.815428
vt 0.021727 0.817797
vt 0.030930 0.893216
vt 0.032357 0.893216
vt 0.032357 0.894768
vt 0.030902 0.894768
vt 0.031154 0.884531
vt 0.032357 0.884531
vt 0.031170 0.883654
vt 0.032357 0.883654
vt 0.037724 0.947872
vt 0.040000 0.945595
vt 0.050321 0.945595
vt 0.053806 0.949080
vt 0.053806 0.976669
vt 0.051836 0.978638
vt 0.039313 0.978638
vt 0.037724 0.977050
vt 0.625000 0.285386
vt 0.375000 0.285386
vt 0.375000 0.232778
vt 0.625000 0.232778
vt 0.375000 0.012021
vt 0.625000 0.012021
vt 0.375000 0.975302
vt 0.625000 0.975302
vt 0.625000 1.000000
vt 0.375000 1.000000
vt 0.031170 0.879712
vt 0.032357 0.879712
vt 0.043573 0.893810
vt 0.043573 0.905061
vt 0.023159 0.905061
vt 0.023159 0.893810
vt 0.022611 0.819086
vt 0.026702 0.815555
vt 0.036437 0.815428
vt 0.038158 0.817707
vt 0.038158 0.845258
vt 0.036681 0.846778
vt 0.023638 0.847156
vt 0.021754 0.845325
vt 0.029209 0.895057
vt 0.029209 0.896198
vt 0.027802 0.896318
vt 0.027802 0.894913
vt 0.036080 0.895236
vt 0.036080 0.896198
vt 0.036768 0.895248
vt 0.036768 0.896198
vt 0.125000 0.517222
vt 0.160386 0.500000
vt 0.320831 0.500000
vt 0.375000 0.526364
vt 0.375000 0.735101
vt 0.344387 0.750000
vt 0.149698 0.750000
vt 0.125000 0.737979
vt 0.625000 0.285386
vt 0.375000 0.285386
vt 0.375000 0.232778
vt 0.625000 0.232778
vt 0.375000 0.012021
vt 0.625000 0.012021
vt 0.375000 0.975302
vt 0.625000 0.975302
vt 0.625000 1.000000
vt 0.375000 1.000000
vt 0.040184 0.895248
vt 0.040184 0.896198
vt 0.017952 0.894899
vt 0.024292 0.887007
vt 0.024527 0.887020
vt 0.024618 0.887077
vt 0.030888 0.892370
vt 0.053364 0.817889
vt 0.056822 0.819371
vt 0.059415 0.832089
vt 0.030173 0.882275
vt 0.026023 0.885521
vt 0.023761 0.885789
vt 0.019360 0.879712
vt 0.030888 0.883194
vt 0.026347 0.885850
vt 0.017754 0.978058
vt 0.017754 0.962423
vt 0.029330 0.962423
vt 0.029947 0.964306
vt 0.029947 0.978042
vt 0.023159 0.910147
vt 0.027831 0.905068
vt 0.027831 0.910530
vt 0.024578 0.887005
vt 0.024587 0.886808
vt 0.025805 0.886203
vt 0.057423 0.851028
vt 0.054911 0.851828
vt 0.042505 0.851780
vt 0.043360 0.838656
vt 0.057423 0.838913
vt 0.043411 0.836925
vt 0.055223 0.836913
vt 0.025545 0.885945
vt 0.024552 0.886760
vt 0.024332 0.886695
vt 0.029964 0.972913
vt 0.031168 0.973147
vt 0.032398 0.976462
vt 0.030252 0.975184
vt 0.053601 0.815428
vt 0.059415 0.816003
vt 0.032398 0.962423
vt 0.025887 0.886526
vt 0.028657 0.982062
vt 0.019045 0.982062
vt 0.613933 0.223533
vt 0.614576 0.222097
vt 0.923387 0.605037
vt 0.016952 0.892671
vt 0.024193 0.886944
vt 0.038186 0.849691
vt 0.038649 0.838588
vt 0.038639 0.838148
vt 0.023422 0.886235
vt 0.017557 0.882732
vt 0.024208 0.886736
vt 0.024207 0.886751
vt 0.024196 0.886942
vt 0.013808 0.894033
vt 0.013035 0.886084
vt 0.009478 0.900547
vt 0.025907 0.997245
vt 0.034011 0.837746
vt 0.039213 0.863981
vt 0.019424 0.833575
vt 0.013681 0.879712
vt 0.013870 0.892169
vt 0.039213 0.828620
vn -0.0112 0.0742 -0.9972
vn -0.3058 -0.1260 0.9437
vn 0.1490 -0.9856 -0.0793
vn -0.2707 0.9608 0.0602
vn -0.1592 0.9767 0.1436
vn -0.2984 0.9387 0.1728
vn -0.0911 0.9885 0.1211
vn 0.0119 -0.0784 0.9968
vn 0.4091 0.0703 0.9098
vn 0.9547 0.2973 0.0131
vn -0.2561 0.9562 0.1421
vn -0.1771 -0.9813 -0.0749
vn -0.3456 0.0141 -0.9383
vn -0.1053 0.9816 0.1592
vn -0.1511 0.9872 0.0504
vn -0.9868 -0.1620 -0.0013
vn -0.9871 -0.1600 -0.0066
vn 0.0026 0.0961 -0.9954
vn 0.9765 0.2005 0.0786
vn -0.0709 0.9865 0.1477
vn -0.1501 0.9415 0.3017
vn -0.3364 0.0107 -0.9417
vn -0.1660 -0.1309 0.9774
vn -0.9181 0.3943 -0.0407
vn -0.0216 -0.1121 0.9935
vn 0.6402 0.0650 0.7655
vn -0.0000 -1.0000 -0.0000
vn 0.0155 0.9971 0.0744
vn 0.8154 0.0393 0.5776
vn 0.9073 0.0801 0.4127
vn -0.0000 -0.0000 1.0000
vn 0.5678 0.5959 -0.5678
vn 0.0953 -0.6791 0.7279
vn -0.5781 0.5758 -0.5781
vn 0.0000 0.0000 -1.0000
vn 0.0126 0.9306 0.3657
vn 0.0000 0.9997 0.0258
vn 0.7071 -0.0000 -0.7071
vn 1.0000 -0.0000 -0.0000
vn 0.7071 -0.0000 0.7071
vn -0.7071 -0.0000 -0.7071
vn -1.0000 0.0000 0.0000
vn -0.7071 0.0000 0.7071
vn 0.0130 0.9992 0.0386
vn 0.6398 0.0000 -0.7685
vn 0.9989 0.0000 -0.0470
vn 0.0134 -0.9998 0.0124
vn -0.8056 0.0000 -0.5924
vn -0.9999 0.0000 0.0142
vn -0.0146 -0.0000 0.9999
vn 0.0003 -0.1143 -0.9934
vn 0.0454 0.9108 0.4104
vn -0.0298 0.0917 0.9953
vn 0.3678 0.0971 0.9248
vn -0.0000 -0.9937 0.1119
vn 0.2829 0.3222 -0.9034
vn 0.9964 0.0844 0.0053
vn 0.0073 0.9995 -0.0322
vn 0.0041 0.9735 0.2287
vn 0.0254 0.0834 0.9962
vn 0.6303 0.1077 0.7689
vn 0.5921 -0.6407 0.4888
vn 0.1982 0.9610 0.1929
vn 0.0999 -0.5017 0.8593
vn 0.9768 0.2135 -0.0164
vn 0.9977 0.0667 -0.0155
vn 0.9964 0.0841 -0.0095
vn -0.3218 -0.9408 0.1062
vn -0.5257 0.5202 -0.6731
vn -0.3536 -0.1138 -0.9284
vn -0.3404 0.9399 -0.0269
vn -0.3158 0.8888 0.3321
vn -0.3008 0.1091 0.9474
vn -0.2993 0.0975 0.9492
vn -0.9999 -0.0131 0.0008
vn 0.9973 0.0726 0.0066
vn 0.3402 -0.7940 0.5038
vn 0.0747 0.6710 0.7377
vn -1.0000 -0.0046 0.0007
vn 0.1760 0.7365 0.6532
vn -1.0000 -0.0033 0.0000
vn 0.9990 0.0443 -0.0093
usemtl Color_Palette
s off
f 11/1/1 9/2/1 6/3/1 1/4/1
f 13/5/2 14/6/2 7/7/2 12/8/2
f 11/9/3 1/10/3 2/11/3 3/12/3 13/13/3
f 5/14/4 15/15/4 23/16/4
f 8/17/5 7/18/5 17/19/5 16/20/5
f 9/21/6 8/17/6 16/20/6 22/22/6
f 7/23/7 14/24/7 27/25/7 17/26/7
f 3/27/8 5/28/8 14/6/8 13/5/8
f 5/28/9 3/27/9 2/29/9 15/30/9
f 6/3/10 15/30/10 2/29/10 1/4/10
f 15/15/11 6/31/11 19/32/11 23/16/11
f 11/9/12 13/13/12 12/33/12 10/34/12
f 10/35/13 8/36/13 9/2/13 11/1/13
f 6/31/14 9/21/14 22/22/14 19/32/14
f 14/37/15 5/14/15 23/16/15 27/38/15
f 12/8/16 7/7/16 8/36/16 10/35/16
f 16/39/17 17/40/17 24/41/17 25/42/17
f 19/43/18 22/44/18 4/45/18 18/46/18
f 18/46/19 20/47/19 23/48/19 19/43/19
f 18/49/20 4/50/20 26/51/20 20/52/20
f 20/52/21 26/51/21 21/53/21
f 22/44/22 16/39/22 25/42/22 4/45/22
f 27/25/23 26/54/23 24/55/23 17/26/23
f 26/56/24 4/45/24 25/42/24 24/41/24
f 23/48/25 21/57/25 26/58/25 27/59/25
f 21/57/26 23/48/26 20/47/26
f 29/60/27 28/61/27 34/62/27 35/63/27 31/64/27
f 38/65/28 37/66/28 41/67/28 40/68/28 42/69/28 33/70/28
f 106/71/29 35/72/29 34/73/29 103/74/29
f 32/75/30 105/76/30 103/77/30 33/78/30
f 35/72/31 106/71/31 102/79/31 31/80/31
f 36/81/32 37/66/32 38/65/32
f 105/82/33 102/83/33 104/84/33
f 39/85/34 40/68/34 41/67/34
f 29/86/35 39/87/35 41/88/35 37/89/35 36/90/35 28/91/35
f 33/70/36 42/69/36 30/92/36 32/93/36
f 52/94/35 53/95/35 46/96/35 43/97/35
f 45/98/37 46/99/37 53/100/37 54/101/37 57/102/37 58/103/37 49/104/37 50/105/37
f 45/106/38 44/107/38 43/108/38 46/109/38
f 44/107/39 45/106/39 50/110/39 47/111/39
f 49/112/40 48/113/40 47/111/40 50/110/40
f 51/114/27 52/115/27 43/116/27 44/117/27 47/118/27 48/119/27 55/120/27 56/121/27
f 53/122/41 52/123/41 51/124/41 54/125/41
f 56/126/42 57/127/42 54/125/42 51/124/42
f 55/128/43 58/129/43 57/130/43 56/131/43
f 48/113/31 49/112/31 58/132/31 55/133/31
f 68/134/35 69/135/35 62/136/35 59/137/35
f 61/138/44 62/139/44 69/140/44 70/141/44 73/142/44 74/143/44 65/144/44 66/145/44
f 61/146/45 60/147/45 59/148/45 62/149/45
f 60/147/46 61/146/46 66/150/46 63/151/46
f 65/152/40 64/153/40 63/151/40 66/150/40
f 67/154/47 68/155/47 59/156/47 60/157/47 63/158/47 64/159/47 71/160/47 72/161/47
f 69/162/48 68/163/48 67/164/48 70/165/48
f 72/166/49 73/167/49 70/165/49 67/164/49
f 71/168/43 74/169/43 73/170/43 72/171/43
f 64/153/50 65/152/50 74/172/50 71/173/50
f 91/174/51 83/175/51 81/176/51 80/177/51 75/178/51
f 86/179/52 85/180/52 101/181/52
f 79/182/53 86/183/53 101/184/53 95/185/53
f 86/183/54 79/182/54 78/186/54 87/187/54
f 91/188/55 75/189/55 78/190/55 79/191/55 95/192/55
f 80/193/56 81/194/56 82/195/56
f 82/196/57 77/197/57 89/198/57
f 82/199/58 81/200/58 83/201/58 99/202/58 77/203/58
f 77/203/59 99/202/59 93/204/59 76/205/59
f 84/206/60 76/207/60 93/208/60 101/184/60
f 76/207/61 84/206/61 89/198/61 77/197/61
f 84/209/62 85/210/62 88/211/62 89/212/62
f 85/180/63 86/179/63 87/213/63 88/214/63
f 85/210/64 84/209/64 101/215/64
f 75/178/65 80/177/65 88/216/65 87/187/65
f 80/177/66 82/196/66 89/198/66 88/216/66
f 78/186/67 75/178/67 87/187/67
f 91/188/68 95/192/68 94/217/68 90/218/68
f 96/219/69 97/220/69 83/221/69
f 90/222/70 96/223/70 83/175/70 91/174/70
f 99/202/71 83/201/71 97/224/71 98/225/71
f 93/204/72 99/202/72 98/225/72 92/226/72
f 95/185/73 101/184/73 100/227/73 94/228/73
f 101/184/74 93/208/74 92/229/74 100/227/74
f 94/228/75 100/227/75 92/229/75 98/230/75 97/231/75 96/223/75 90/222/75
f 36/90/76 38/232/76 33/78/76 103/74/76
f 105/76/31 32/75/31 30/233/31 102/234/31
f 104/84/77 103/235/77 105/82/77
f 104/236/78 102/237/78 106/238/78
f 102/234/79 30/233/79 42/239/79 40/240/79 39/87/79 29/86/79
f 106/238/80 103/241/80 104/236/80
f 31/80/81 102/234/81 29/86/81
f 28/91/82 36/90/82 103/74/82 34/73/82
