# Blender v2.92.0 OBJ File: 'objects.blend'
# www.blender.org
mtllib landmark--ramp.mtl
o ramp_Cube.018
v -1.907683 -0.625668 -1.387993
v 1.150043 -0.199128 -1.190317
v 1.000000 0.512592 -1.000000
v 1.150043 -0.199128 0.822781
v 0.968929 -0.199128 1.000000
v 0.800226 0.601104 1.000000
v 1.000000 0.512592 0.822781
v -0.269321 -0.397123 -1.282076
v -1.907683 1.561412 -1.000000
v -1.688749 1.703871 -1.000000
v -1.714873 -0.326637 1.000000
v -2.213929 -0.199128 0.906136
v -1.688749 1.703871 0.792200
v -1.462081 1.603443 1.000000
v -1.699883 1.448707 1.000000
v -1.907683 1.561412 0.792200
v -0.486847 -0.268293 1.000000
v -0.410354 1.137464 -0.819669
v -0.254981 1.068625 -1.000000
v -0.402810 0.964934 -1.032419
v -0.585308 1.214979 -1.000000
v -0.326985 1.100526 0.715955
v -0.571718 1.208958 1.000000
v -0.347884 0.811476 1.000000
v -0.051409 0.978430 1.000000
vt 0.023166 0.922020
vt 0.022414 0.911464
vt 0.023368 0.911498
vt 0.024120 0.922054
vt 0.021948 0.916575
vt 0.013716 0.916150
vt 0.013212 0.915187
vt 0.017512 0.908286
vt 0.021948 0.908066
vt 0.035393 0.888259
vt 0.034266 0.890780
vt 0.023464 0.890780
vt 0.023464 0.888259
vt 0.043251 0.890920
vt 0.038736 0.889174
vt 0.038912 0.888259
vt 0.042928 0.889811
vt 0.036923 0.897548
vt 0.043370 0.897778
vt 0.045477 0.899457
vt 0.046921 0.904997
vt 0.045787 0.906228
vt 0.035393 0.904611
vt 0.021948 0.926396
vt 0.008930 0.924466
vt 0.008301 0.923070
vt 0.012081 0.917003
vt 0.034694 0.922054
vt 0.036081 0.908206
vt 0.047290 0.906566
vt 0.046245 0.907699
vt 0.035656 0.907699
vt 0.022414 0.888958
vt 0.022414 0.898755
vt 0.022414 0.907242
vt 0.010543 0.908066
vt 0.009419 0.907071
vt 0.008813 0.898457
vt 0.008301 0.891191
vt 0.008588 0.888259
vt 0.026321 0.838955
vt 0.028004 0.837368
vt 0.037103 0.837909
vt 0.038172 0.839043
vt 0.038172 0.846194
vt 0.027552 0.846194
vt 0.026321 0.844725
vt 0.044633 0.896219
vt 0.021763 0.973085
vt 0.022490 0.972316
vt 0.022993 0.973279
vt 0.045081 0.898150
vt 0.033375 0.956509
vt 0.031692 0.958095
vt 0.031692 0.955929
vt 0.038172 0.828768
vt 0.038172 0.836902
vt 0.026321 0.835582
vt 0.026321 0.830063
vt 0.027371 0.828768
vt 0.034266 0.901054
vt 0.033197 0.899921
vt 0.034458 0.899466
vn -0.5454 0.8382 0.0000
vn 0.0637 0.2134 -0.9749
vn 0.9785 0.2063 0.0000
vn 0.6919 0.1459 0.7071
vn 0.0000 0.0000 1.0000
vn 0.0419 0.1699 -0.9846
vn -0.9931 0.0828 -0.0831
vn -0.3857 0.5927 0.7071
vn -0.3733 0.0637 0.9255
vn 0.0615 -0.9957 0.0698
vn 0.4051 0.9143 0.0000
vn -0.3713 0.7147 -0.5927
vn -0.3738 0.6637 0.6479
vn 0.7591 0.4275 0.4909
vn 0.6995 0.5670 -0.4350
usemtl Material.002
s off
f 13/1/1 10/2/1 9/3/1 16/4/1
f 8/5/2 20/6/2 19/7/2 3/8/2 2/9/2
f 2/10/3 3/11/3 7/12/3 4/13/3
f 6/14/4 5/15/4 4/16/4 7/17/4
f 17/18/5 24/19/5 23/20/5 14/21/5 15/22/5 11/23/5
f 1/24/6 9/25/6 10/26/6 21/27/6 20/6/6 8/5/6
f 12/28/7 16/4/7 9/3/7 1/29/7
f 15/22/8 14/21/8 13/30/8 16/31/8
f 16/31/9 12/32/9 11/23/9 15/22/9
f 1/33/10 8/34/10 2/35/10 4/36/10 5/37/10 17/38/10 11/39/10 12/40/10
f 23/41/11 22/42/11 18/43/11 21/44/11 10/45/11 13/46/11 14/47/11
f 5/15/5 6/14/5 25/48/5 24/19/5 17/18/5
f 18/49/12 19/50/12 20/51/12
f 25/48/13 22/52/13 24/19/13
f 22/53/14 23/54/14 24/55/14
f 3/56/11 19/57/11 18/43/11 22/42/11 25/58/11 6/59/11 7/60/11
f 21/61/15 18/62/15 20/63/15
