# Blender v2.92.0 OBJ File: 'objects.blend'
# www.blender.org
mtllib landmark--pillars__01.mtl
o pillars__01_Cube.009
v -0.366947 -0.300719 -3.066794
v 0.374241 1.964970 -2.421120
v 0.242698 1.997531 -2.505967
v 0.584108 -0.200098 -3.008885
v 0.630979 -0.207263 -2.920675
v -0.629061 1.838193 -2.576985
v -0.639728 1.962605 -2.459282
v -0.579986 1.982181 -2.548965
v -0.671675 1.903597 -1.997308
v 0.438426 0.959970 -2.614021
v 0.387149 0.873245 -2.630353
v 0.566795 0.798444 -2.727670
v 0.498756 0.811422 -2.815118
v 0.141601 0.888263 -2.724679
v 0.328051 0.974987 -2.701356
v -0.312628 -0.312961 -2.166972
v -0.398982 -0.404807 -2.359826
v 0.248406 1.788651 -1.817366
v 0.354901 1.890887 -1.975001
v 0.477080 -0.229415 -2.118852
v 0.602835 -0.298707 -2.299586
v -0.548473 1.768774 -1.856308
v -0.543372 1.775109 -1.855030
v 0.220605 1.800246 -1.816006
v 0.240604 1.929240 -1.970500
v 0.365154 0.762985 -1.970430
v 0.467214 0.799400 -2.141228
v 0.565080 -0.387727 1.731768
v 0.289818 1.947848 2.486041
v 0.372523 1.967703 2.350657
v 0.565080 -0.279743 2.683779
v 0.478955 -0.273983 2.734557
v 0.380485 1.799720 1.477667
v 0.281782 1.939949 1.471413
v 0.375943 1.946253 1.526994
v -0.184824 1.948862 1.460352
v 0.337102 0.925468 2.548169
v 0.338328 0.837289 2.496786
v 0.431670 0.749110 2.672429
v 0.516940 0.749212 2.600498
v 0.422743 0.838408 2.247208
v 0.420662 0.927604 2.433939
v -0.323600 -0.268769 1.825981
v -0.150227 -0.387727 1.731768
v -0.338188 1.861351 2.388232
v -0.162747 1.939537 2.486969
v -0.323636 -0.179105 2.616483
v -0.149460 -0.273984 2.734556
v -0.338282 1.836015 1.590557
v -0.338394 1.842468 1.595668
v -0.339092 1.873022 2.360444
v -0.166733 1.978137 2.372736
v -0.330931 0.824329 2.504771
v -0.152255 0.835479 2.598924
v -0.554174 -0.210426 -0.907527
v 0.491165 -0.210426 -0.907526
v 0.510281 5.608777 -2.260539
v 0.491165 -0.210426 -2.260539
v -0.230116 5.639183 -2.260540
v -0.327482 5.730725 -2.083123
v -0.554174 -0.210426 -2.192027
v -0.452782 -0.210426 -2.260540
v -0.336857 5.770660 -0.907527
v -0.220655 5.917849 -0.907526
v -0.331509 5.917850 -0.982519
v 0.509692 5.729101 -0.907526
v 0.510280 5.917849 -1.003582
v 0.368292 5.917849 -0.907526
v 0.510281 5.757931 -2.123991
v 0.500901 3.691187 -2.260540
v -0.438806 3.752284 -2.136603
v -0.208589 3.706351 -2.204929
v -0.333371 3.846753 -2.260540
v -0.345445 3.565949 -2.260540
v 0.495481 1.173118 -0.907526
v 0.494589 1.161746 -1.383372
v -0.512735 1.212953 -2.172119
v 0.494536 1.140567 -2.260540
v -0.413543 1.170093 -2.260540
v -0.492644 2.126777 -0.907526
v -0.446596 1.300498 -1.124129
v -0.504929 1.144913 -0.907527
v -0.277243 1.290240 -0.955511
v 0.633663 -0.210425 0.542590
v -0.411677 -0.210426 0.542589
v -0.430792 5.608776 1.895602
v -0.411677 -0.210426 1.895602
v 0.309604 5.639184 1.895602
v 0.406971 5.730725 1.718186
v 0.633663 -0.210426 1.827090
v 0.532270 -0.210426 1.895603
v 0.416345 5.770661 0.542589
v 0.300144 5.917850 0.542589
v 0.410997 5.917850 0.617583
v -0.430203 5.729101 0.542590
v -0.430792 5.917849 0.638645
v -0.288804 5.917850 0.542589
v -0.430792 5.757930 1.759055
v -0.421412 3.691187 1.895602
v 0.518294 3.752285 1.771665
v 0.288077 3.706351 1.839991
v 0.412860 3.846753 1.895602
v 0.424933 3.565949 1.895603
v -0.415993 1.173118 0.542590
v -0.415101 1.161746 1.018435
v 0.592223 1.212953 1.807182
v -0.415048 1.140567 1.895602
v 0.493031 1.170093 1.895603
v 0.572133 2.126777 0.542589
v 0.526084 1.300498 0.759191
v 0.584417 1.144913 0.542589
v 0.356731 1.290240 0.590573
vt 0.017952 0.894899
vt 0.024292 0.887007
vt 0.024527 0.887020
vt 0.024618 0.887077
vt 0.030888 0.892370
vt 0.053364 0.817889
vt 0.056822 0.819371
vt 0.059415 0.832089
vt 0.030173 0.882275
vt 0.026023 0.885521
vt 0.023761 0.885789
vt 0.019360 0.879712
vt 0.030888 0.883194
vt 0.026347 0.885850
vt 0.017754 0.978058
vt 0.017754 0.962423
vt 0.029330 0.962423
vt 0.029947 0.964306
vt 0.029947 0.978042
vt 0.023159 0.910147
vt 0.027831 0.905068
vt 0.027831 0.910530
vt 0.024578 0.887005
vt 0.024587 0.886808
vt 0.025805 0.886203
vt 0.057423 0.851028
vt 0.054911 0.851828
vt 0.042505 0.851780
vt 0.043360 0.838656
vt 0.057423 0.838913
vt 0.043411 0.836925
vt 0.055223 0.836913
vt 0.025545 0.885945
vt 0.024552 0.886760
vt 0.024332 0.886695
vt 0.029964 0.972913
vt 0.031168 0.973147
vt 0.032398 0.976462
vt 0.030252 0.975184
vt 0.053601 0.815428
vt 0.059415 0.816003
vt 0.032398 0.962423
vt 0.025887 0.886526
vt 0.028657 0.982062
vt 0.019045 0.982062
vt 0.027996 0.903820
vt 0.028033 0.903737
vt 0.045795 0.925764
vt 0.016952 0.892671
vt 0.024193 0.886944
vt 0.038186 0.849691
vt 0.038649 0.838588
vt 0.038639 0.838148
vt 0.023422 0.886235
vt 0.017557 0.882732
vt 0.024208 0.886736
vt 0.024207 0.886751
vt 0.024196 0.886942
vt 0.017952 0.894899
vt 0.024292 0.887007
vt 0.024527 0.887020
vt 0.024618 0.887077
vt 0.030888 0.892370
vt 0.053364 0.817889
vt 0.056822 0.819371
vt 0.059415 0.832089
vt 0.030173 0.882275
vt 0.026023 0.885521
vt 0.023761 0.885789
vt 0.019360 0.879712
vt 0.030888 0.883194
vt 0.026347 0.885850
vt 0.017754 0.978058
vt 0.017754 0.962423
vt 0.029330 0.962423
vt 0.029947 0.964306
vt 0.029947 0.978042
vt 0.023159 0.910147
vt 0.027831 0.905068
vt 0.027831 0.910530
vt 0.024578 0.887005
vt 0.024587 0.886808
vt 0.025805 0.886203
vt 0.057423 0.851028
vt 0.054911 0.851828
vt 0.042505 0.851780
vt 0.043360 0.838656
vt 0.057423 0.838913
vt 0.043411 0.836925
vt 0.055223 0.836913
vt 0.025545 0.885945
vt 0.024552 0.886760
vt 0.024332 0.886695
vt 0.029964 0.972913
vt 0.031168 0.973147
vt 0.032398 0.976462
vt 0.030252 0.975184
vt 0.053601 0.815428
vt 0.059415 0.816003
vt 0.032398 0.962423
vt 0.025887 0.886526
vt 0.028657 0.982062
vt 0.019045 0.982062
vt 0.027996 0.903820
vt 0.028033 0.903737
vt 0.045795 0.925764
vt 0.016952 0.892671
vt 0.024193 0.886944
vt 0.038186 0.849691
vt 0.038649 0.838588
vt 0.038639 0.838148
vt 0.023422 0.886235
vt 0.017557 0.882732
vt 0.024208 0.886736
vt 0.024207 0.886751
vt 0.024196 0.886942
vt 0.005543 0.962407
vt 0.005543 0.945595
vt 0.036078 0.945595
vt 0.037707 0.947226
vt 0.037707 0.962406
vt 0.039784 0.856026
vt 0.041898 0.858199
vt 0.041744 0.869587
vt 0.038961 0.872295
vt 0.006854 0.871863
vt 0.008208 0.855672
vt 0.011622 0.904080
vt 0.009832 0.913846
vt 0.016938 0.918990
vt 0.016938 0.908682
vt 0.014653 0.887541
vt 0.011939 0.902349
vt 0.016938 0.906899
vt 0.016938 0.891407
vt 0.008800 0.919473
vt 0.006640 0.912086
vt 0.005359 0.917295
vt 0.042701 0.855201
vt 0.018257 0.990960
vt 0.025907 0.954350
vt 0.024722 0.986041
vt 0.042701 0.873342
vt 0.009167 0.933737
vt 0.010014 0.924861
vt 0.011028 0.923118
vt 0.016938 0.924768
vt 0.002389 0.871762
vt 0.002927 0.857448
vt 0.012905 0.894567
vt 0.013808 0.894033
vt 0.013035 0.886084
vt 0.009478 0.900547
vt 0.025907 0.997245
vt 0.034011 0.837746
vt 0.039213 0.863981
vt 0.019424 0.833575
vt 0.013681 0.879712
vt 0.013870 0.892169
vt 0.015273 0.893306
vt 0.009866 0.916646
vt 0.008665 0.915579
vt 0.039213 0.828620
vt 0.006785 0.911495
vt 0.008224 0.923734
vt 0.010225 0.922646
vt 0.010077 0.922556
vt 0.009058 0.902251
vt 0.014667 0.892604
vt 0.013396 0.893868
vt 0.005543 0.962407
vt 0.005543 0.945595
vt 0.036078 0.945595
vt 0.037707 0.947226
vt 0.037707 0.962406
vt 0.039784 0.856026
vt 0.041898 0.858199
vt 0.041744 0.869587
vt 0.038961 0.872295
vt 0.006854 0.871863
vt 0.008208 0.855672
vt 0.011622 0.904080
vt 0.009832 0.913846
vt 0.016938 0.918990
vt 0.016938 0.908682
vt 0.014653 0.887541
vt 0.011939 0.902349
vt 0.016938 0.906899
vt 0.016938 0.891407
vt 0.008800 0.919473
vt 0.006640 0.912086
vt 0.005359 0.917295
vt 0.042701 0.855201
vt 0.018257 0.990960
vt 0.025907 0.954350
vt 0.024722 0.986041
vt 0.042701 0.873342
vt 0.009167 0.933737
vt 0.010014 0.924861
vt 0.011028 0.923118
vt 0.016938 0.924768
vt 0.002389 0.871762
vt 0.002927 0.857448
vt 0.012905 0.894567
vt 0.013808 0.894033
vt 0.013035 0.886084
vt 0.009478 0.900547
vt 0.025907 0.997245
vt 0.034011 0.837746
vt 0.039213 0.863981
vt 0.019424 0.833575
vt 0.013681 0.879712
vt 0.013870 0.892169
vt 0.015273 0.893306
vt 0.009866 0.916646
vt 0.008665 0.915579
vt 0.039213 0.828620
vt 0.006785 0.911495
vt 0.008224 0.923734
vt 0.010225 0.922646
vt 0.010077 0.922556
vt 0.009058 0.902251
vt 0.014667 0.892604
vt 0.013396 0.893868
vn -0.9925 -0.1057 -0.0610
vn 0.4151 0.9072 0.0690
vn 0.9910 0.0757 0.1105
vn 0.8341 0.1629 -0.5270
vn 0.1126 -0.9838 -0.1397
vn -0.8095 0.3653 -0.4595
vn 0.0477 0.1913 -0.9804
vn -0.0318 0.9909 0.1310
vn 0.2303 0.9623 0.1446
vn 0.9966 0.0821 0.0107
vn 0.5939 0.1934 -0.7810
vn 0.4007 -0.3563 -0.8441
vn 0.2012 0.9590 -0.1994
vn 0.8583 -0.4677 -0.2111
vn 0.0353 0.2624 -0.9643
vn 0.0362 0.1817 -0.9827
vn 0.0395 0.1912 -0.9808
vn 0.0724 -0.9130 0.4014
vn -0.5611 0.2958 0.7731
vn -0.8438 -0.1755 0.5071
vn -0.0487 0.7456 0.6646
vn 0.2777 0.7147 0.6420
vn 0.8399 0.0199 0.5424
vn 0.8423 0.0098 0.5390
vn -0.0443 -0.1526 0.9873
vn 0.0005 -0.1135 -0.9935
vn 0.0824 0.9075 0.4118
vn -0.0538 0.0910 0.9944
vn 0.5819 0.0844 0.8089
vn -0.0000 -0.9936 0.1127
vn 0.4711 0.2945 -0.8315
vn 0.9989 0.0465 0.0029
vn 0.0133 0.9994 -0.0324
vn 0.0074 0.9731 0.2302
vn 0.0460 0.0827 0.9955
vn 0.8266 0.0775 0.5574
vn 0.8003 -0.4754 0.3653
vn 0.3456 0.9198 0.1859
vn 0.1790 -0.4935 0.8511
vn 0.9928 0.1191 -0.0092
vn 0.9993 0.0367 -0.0086
vn 0.9989 0.0463 -0.0053
vn -0.5264 -0.8448 0.0960
vn -0.7462 0.4053 -0.5281
vn -0.5645 -0.0998 -0.8194
vn -0.5506 0.8344 -0.0241
vn -0.5181 0.8006 0.3012
vn -0.4956 0.0987 0.8629
vn -0.4936 0.0882 0.8652
vn -1.0000 -0.0072 0.0005
vn 0.0000 -1.0000 0.0000
vn -0.0204 0.9892 -0.1451
vn -0.7265 0.0258 -0.6867
vn -0.8286 0.0551 -0.5571
vn 0.0000 -0.0000 -1.0000
vn -0.5124 0.4045 0.7575
vn -0.0797 -0.4275 -0.9005
vn 0.5167 0.3871 0.7637
vn -0.9987 0.0512 0.0051
vn -0.0142 0.7914 -0.6111
vn -0.9985 0.0547 -0.0098
vn -0.3357 -0.5894 -0.7348
vn -0.0620 0.4192 -0.9058
vn 1.0000 -0.0035 -0.0010
vn -0.1562 0.4916 -0.8567
vn 1.0000 -0.0025 0.0000
vn -0.6952 -0.2183 0.6849
vn -0.0005 0.0163 0.9999
vn -0.9996 0.0261 0.0117
vn 1.0000 -0.0031 -0.0018
vn -0.6129 0.0232 -0.7898
vn -0.4078 0.7901 0.4577
vn -0.0054 -0.0056 1.0000
vn 0.0204 0.9892 0.1451
vn 0.7265 0.0258 0.6867
vn 0.8286 0.0551 0.5571
vn -0.0000 -0.0000 1.0000
vn 0.5124 0.4046 -0.7575
vn 0.0797 -0.4275 0.9005
vn -0.5167 0.3870 -0.7637
vn 0.9987 0.0512 -0.0051
vn 0.0142 0.7914 0.6111
vn 0.9985 0.0547 0.0098
vn 0.3357 -0.5894 0.7348
vn 0.0620 0.4192 0.9058
vn -1.0000 -0.0035 0.0010
vn 0.1562 0.4916 0.8567
vn -1.0000 -0.0025 -0.0000
vn 0.6952 -0.2183 -0.6849
vn 0.0005 0.0163 -0.9999
vn 0.9996 0.0261 -0.0117
vn -1.0000 -0.0031 0.0018
vn 0.6129 0.0232 0.7898
vn 0.4078 0.7901 -0.4577
vn 0.0054 -0.0056 -1.0000
usemtl Texture.001
s off
f 17/1/1 9/2/1 7/3/1 6/4/1 1/5/1
f 12/6/2 11/7/2 27/8/2
f 5/9/3 12/10/3 27/11/3 21/12/3
f 12/10/4 5/9/4 4/13/4 13/14/4
f 17/15/5 1/16/5 4/17/5 5/18/5 21/19/5
f 6/20/6 7/21/6 8/22/6
f 8/23/7 3/24/7 15/25/7
f 8/26/8 7/27/8 9/28/8 25/29/8 3/30/8
f 3/30/9 25/29/9 19/31/9 2/32/9
f 10/33/10 2/34/10 19/35/10 27/11/10
f 2/34/11 10/33/11 15/25/11 3/24/11
f 10/36/12 11/37/12 14/38/12 15/39/12
f 11/7/13 12/6/13 13/40/13 14/41/13
f 11/37/14 10/36/14 27/42/14
f 1/5/15 6/4/15 14/43/15 13/14/15
f 6/4/16 8/23/16 15/25/16 14/43/16
f 4/13/17 1/5/17 13/14/17
f 17/15/18 21/19/18 20/44/18 16/45/18
f 22/46/19 23/47/19 9/48/19
f 16/49/20 22/50/20 9/2/20 17/1/20
f 25/29/21 9/28/21 23/51/21 24/52/21
f 19/31/22 25/29/22 24/52/22 18/53/22
f 21/12/23 27/11/23 26/54/23 20/55/23
f 27/11/24 19/35/24 18/56/24 26/54/24
f 20/55/25 26/54/25 18/56/25 24/57/25 23/58/25 22/50/25 16/49/25
f 44/59/26 36/60/26 34/61/26 33/62/26 28/63/26
f 39/64/27 38/65/27 54/66/27
f 32/67/28 39/68/28 54/69/28 48/70/28
f 39/68/29 32/67/29 31/71/29 40/72/29
f 44/73/30 28/74/30 31/75/30 32/76/30 48/77/30
f 33/78/31 34/79/31 35/80/31
f 35/81/32 30/82/32 42/83/32
f 35/84/33 34/85/33 36/86/33 52/87/33 30/88/33
f 30/88/34 52/87/34 46/89/34 29/90/34
f 37/91/35 29/92/35 46/93/35 54/69/35
f 29/92/36 37/91/36 42/83/36 30/82/36
f 37/94/37 38/95/37 41/96/37 42/97/37
f 38/65/38 39/64/38 40/98/38 41/99/38
f 38/95/39 37/94/39 54/100/39
f 28/63/40 33/62/40 41/101/40 40/72/40
f 33/62/41 35/81/41 42/83/41 41/101/41
f 31/71/42 28/63/42 40/72/42
f 44/73/43 48/77/43 47/102/43 43/103/43
f 49/104/44 50/105/44 36/106/44
f 43/107/45 49/108/45 36/60/45 44/59/45
f 52/87/46 36/86/46 50/109/46 51/110/46
f 46/89/47 52/87/47 51/110/47 45/111/47
f 48/70/48 54/69/48 53/112/48 47/113/48
f 54/69/49 46/93/49 45/114/49 53/112/49
f 47/113/50 53/112/50 45/114/50 51/115/50 50/116/50 49/108/50 43/107/50
usemtl Color_Palette.005
f 56/117/51 55/118/51 61/119/51 62/120/51 58/121/51
f 65/122/52 64/123/52 68/124/52 67/125/52 69/126/52 60/127/52
f 74/128/53 79/129/53 77/130/53 71/131/53
f 59/132/54 73/133/54 71/134/54 60/135/54
f 62/136/55 79/129/55 78/137/55 58/138/55
f 63/139/56 64/123/56 65/122/56
f 73/140/57 70/141/57 72/142/57
f 66/143/58 67/125/58 68/124/58
f 55/144/59 82/145/59 81/146/59 77/130/59 61/147/59
f 60/127/60 69/126/60 57/148/60 59/149/60
f 63/150/61 65/151/61 60/135/61 71/131/61
f 73/133/55 59/132/55 57/152/55 70/153/55
f 72/142/62 71/154/62 73/140/62
f 72/155/63 70/156/63 74/157/63
f 70/153/64 57/152/64 69/158/64 67/159/64 66/160/64 75/161/64 76/162/64
f 74/157/65 71/163/65 72/155/65
f 58/138/66 78/164/66 76/162/66 56/165/66
f 80/166/67 81/146/67 83/167/67
f 56/165/68 75/161/68 83/167/68 82/145/68 55/144/68
f 77/130/69 81/146/69 80/166/69 63/150/69 71/131/69
f 76/162/70 75/161/70 56/165/70
f 77/130/71 79/129/71 62/136/71 61/147/71
f 76/162/66 78/164/66 70/153/66
f 78/137/55 79/129/55 74/128/55 70/168/55
f 81/146/72 82/145/72 83/167/72
f 80/166/73 83/167/73 75/161/73 66/160/73 68/169/73 64/170/73 63/150/73
usemtl Color_Palette.004
f 85/171/51 84/172/51 90/173/51 91/174/51 87/175/51
f 94/176/74 93/177/74 97/178/74 96/179/74 98/180/74 89/181/74
f 103/182/75 108/183/75 106/184/75 100/185/75
f 88/186/76 102/187/76 100/188/76 89/189/76
f 91/190/77 108/183/77 107/191/77 87/192/77
f 92/193/78 93/177/78 94/176/78
f 102/194/79 99/195/79 101/196/79
f 95/197/80 96/179/80 97/178/80
f 84/198/81 111/199/81 110/200/81 106/184/81 90/201/81
f 89/181/82 98/180/82 86/202/82 88/203/82
f 92/204/83 94/205/83 89/189/83 100/185/83
f 102/187/77 88/186/77 86/206/77 99/207/77
f 101/196/84 100/208/84 102/194/84
f 101/209/85 99/210/85 103/211/85
f 99/207/86 86/206/86 98/212/86 96/213/86 95/214/86 104/215/86 105/216/86
f 103/211/87 100/217/87 101/209/87
f 87/192/88 107/218/88 105/216/88 85/219/88
f 109/220/89 110/200/89 112/221/89
f 85/219/90 104/215/90 112/221/90 111/199/90 84/198/90
f 106/184/91 110/200/91 109/220/91 92/204/91 100/185/91
f 105/216/92 104/215/92 85/219/92
f 106/184/93 108/183/93 91/190/93 90/201/93
f 105/216/88 107/218/88 99/207/88
f 107/191/77 108/183/77 103/182/77 99/222/77
f 110/200/94 111/199/94 112/221/94
f 109/220/95 112/221/95 104/215/95 95/214/95 97/223/95 93/224/95 92/204/95
