# Blender v2.92.0 OBJ File: 'objects.blend'
# www.blender.org
mtllib rock__medium.mtl
o Rock01_Sphere.001
v -0.483344 1.168529 -0.336918
v -0.256679 1.396622 -0.189910
v -0.031728 0.432760 -1.000000
v 0.000000 -0.068281 -0.866025
v -0.483344 1.168529 0.336918
v -0.256679 1.396622 0.189909
v -0.000293 1.136795 0.673836
v 0.832434 0.375989 -0.500000
v 0.750000 -0.068281 -0.433013
v 0.015602 1.378735 0.379819
v 0.482759 1.105061 0.336918
v 0.832434 0.375989 0.500000
v 0.750000 -0.068281 0.433013
v 0.287882 1.360848 0.189910
v 0.482759 1.105061 -0.336918
v -0.031728 0.432760 1.000000
v -0.000000 -0.068281 0.866025
v 0.287882 1.360848 -0.189910
v 0.021011 1.461071 -0.000000
v -0.895891 0.489531 0.500000
v -0.750000 -0.068281 0.433012
v -0.000293 1.136795 -0.673836
v 0.015602 1.378735 -0.379819
v -0.895891 0.489531 -0.500000
v -0.750000 -0.068281 -0.433013
v -0.001555 1.026674 -0.790848
v -0.033171 0.545421 -0.917874
v 0.681867 0.981777 -0.395424
v 0.760022 0.493313 -0.458937
v 0.681866 0.981777 0.395424
v 0.760022 0.493313 0.458937
v -0.001555 1.026674 0.790848
v -0.033171 0.545421 0.917874
v -0.684977 1.071571 0.395424
v -0.826364 0.597529 0.458937
v -0.684977 1.071571 -0.395424
v -0.826364 0.597529 -0.458938
vt 0.150296 0.886875
vt 0.153235 0.897451
vt 0.144860 0.903285
vt 0.137791 0.900987
vt 0.156613 0.905046
vt 0.155416 0.906223
vt 0.154179 0.905659
vt 0.153851 0.903949
vt 0.154524 0.907198
vt 0.157330 0.908315
vt 0.155801 0.907686
vt 0.155284 0.910417
vt 0.154889 0.908729
vt 0.146405 0.913848
vt 0.138908 0.918606
vt 0.152409 0.909435
vt 0.153634 0.908190
vt 0.156328 0.916837
vt 0.156709 0.927395
vt 0.151651 0.906011
vt 0.153233 0.906697
vt 0.163218 0.910426
vt 0.174822 0.915964
vt 0.161847 0.841529
vt 0.161847 0.857323
vt 0.159755 0.855977
vt 0.159889 0.842796
vt 0.147645 0.864500
vt 0.147892 0.862131
vt 0.161903 0.901445
vt 0.174822 0.891015
vt 0.134219 0.856458
vt 0.136279 0.855353
vt 0.148250 0.833610
vt 0.148363 0.835976
vt 0.134321 0.840888
vt 0.136481 0.842063
vt 0.153419 0.898965
vt 0.153661 0.903071
vt 0.150288 0.905818
vt 0.146408 0.903934
vt 0.151220 0.910213
vt 0.147795 0.912709
vt 0.155468 0.911291
vt 0.156047 0.915340
vt 0.158557 0.908474
vt 0.162038 0.909977
vt 0.183003 0.851958
vt 0.172412 0.857980
vt 0.172486 0.855358
vt 0.179586 0.850765
vt 0.172532 0.833610
vt 0.183003 0.839705
vt 0.179656 0.840893
vt 0.172586 0.836231
vt 0.157705 0.904364
vt 0.160815 0.902282
vt 0.161857 0.851907
vt 0.165378 0.850709
vt 0.161864 0.839602
vt 0.165453 0.840805
vn 0.4842 -0.2067 -0.8502
vn -0.3578 0.7305 -0.5817
vn -0.0825 0.9742 -0.2100
vn -0.7093 0.7049 -0.0000
vn -0.2261 0.9741 0.0000
vn -0.3578 0.7305 0.5817
vn 0.9832 -0.1824 0.0000
vn -0.0825 0.9742 0.2100
vn 0.4503 0.6774 0.5817
vn 0.2092 0.9551 0.2100
vn 0.4842 -0.2067 0.8502
vn 0.7954 0.6060 0.0000
vn 0.3516 0.9362 0.0000
vn 0.2092 0.9551 -0.2100
vn -0.4920 -0.2413 0.8365
vn 0.4503 0.6774 -0.5817
vn -0.8408 0.5413 -0.0000
vn -0.3955 0.5377 0.7446
vn -0.9675 -0.2530 -0.0000
vn 0.4506 0.5296 0.7186
vn -0.3955 0.5377 -0.7446
vn 0.8510 0.5252 0.0000
vn -0.4920 -0.2413 -0.8365
vn 0.4506 0.5296 -0.7186
vn 0.5010 0.1899 -0.8443
vn 0.9874 0.1580 0.0000
vn 0.5010 0.1899 0.8443
vn -0.4719 0.2539 0.8443
vn -0.3016 0.7710 0.5610
vn -0.3016 0.7709 -0.5610
vn -0.9583 0.2858 -0.0000
vn 0.3910 0.7415 0.5452
vn 0.5264 0.8502 0.0000
vn -0.4719 0.2539 -0.8443
vn -0.4334 0.9012 -0.0000
vn 0.3910 0.7415 -0.5452
usemtl Material.004
s off
f 4/1/1 3/2/1 8/3/1 9/4/1
f 1/5/2 2/6/2 23/7/2 22/8/2
f 2/6/3 19/9/3 23/7/3
f 5/10/4 6/11/4 2/6/4 1/5/4
f 6/11/5 19/9/5 2/6/5
f 7/12/6 10/13/6 6/11/6 5/10/6
f 9/4/7 8/3/7 12/14/7 13/15/7
f 10/13/8 19/9/8 6/11/8
f 11/16/9 14/17/9 10/13/9 7/12/9
f 14/17/10 19/9/10 10/13/10
f 13/15/11 12/14/11 16/18/11 17/19/11
f 15/20/12 18/21/12 14/17/12 11/16/12
f 18/21/13 19/9/13 14/17/13
f 23/7/14 19/9/14 18/21/14
f 17/19/15 16/18/15 20/22/15 21/23/15
f 22/8/16 23/7/16 18/21/16 15/20/16
f 24/24/17 20/25/17 35/26/17 37/27/17
f 20/25/18 16/28/18 33/29/18 35/26/18
f 21/23/19 20/22/19 24/30/19 25/31/19
f 16/28/20 12/32/20 31/33/20 33/29/20
f 3/34/21 24/24/21 37/27/21 27/35/21
f 12/32/22 8/36/22 29/37/22 31/33/22
f 25/31/23 24/30/23 3/2/23 4/1/23
f 8/36/24 3/34/24 27/35/24 29/37/24
f 27/38/25 26/39/25 28/40/25 29/41/25
f 29/41/26 28/40/26 30/42/26 31/43/26
f 31/43/27 30/42/27 32/44/27 33/45/27
f 33/45/28 32/44/28 34/46/28 35/47/28
f 34/48/29 32/49/29 7/50/29 5/51/29
f 26/52/30 36/53/30 1/54/30 22/55/30
f 35/47/31 34/46/31 36/56/31 37/57/31
f 32/49/32 30/58/32 11/59/32 7/50/32
f 30/58/33 28/60/33 15/61/33 11/59/33
f 37/57/34 36/56/34 26/39/34 27/38/34
f 36/53/35 34/48/35 5/51/35 1/54/35
f 28/60/36 26/52/36 22/55/36 15/61/36
