# Blender v2.92.0 OBJ File: 'objects.blend'
# www.blender.org
mtllib rock__small.mtl
o Rock01.002_Sphere.003
v -0.483344 0.736810 -0.336918
v -0.256679 1.088477 -0.189910
v -0.483344 0.736810 0.336918
v -0.256679 1.088477 0.189909
v -0.000293 0.705076 0.673836
v 0.015602 1.070590 0.379819
v 0.616943 0.673342 0.251955
v 0.422066 1.052703 0.104947
v 0.616943 0.673342 -0.421881
v 0.422066 1.052703 -0.274873
v 0.021011 1.152926 -0.000000
v 0.133892 0.705076 -0.758799
v 0.149786 1.070590 -0.464782
v 0.132629 0.594955 -0.875811
v 0.101013 0.113702 -1.002837
v 0.816051 0.550058 -0.480387
v 0.894206 0.061594 -0.543900
v 0.816051 0.550058 0.310461
v 0.894206 0.061594 0.373974
v -0.001555 0.594955 0.790848
v -0.033171 0.113702 0.917874
v -0.684977 0.639852 0.395424
v -0.826364 0.165810 0.458937
v -0.684977 0.639852 -0.395424
v -0.826364 0.165810 -0.458938
vt 0.156613 0.905046
vt 0.155416 0.906223
vt 0.154179 0.905659
vt 0.153851 0.903949
vt 0.154524 0.907198
vt 0.157330 0.908315
vt 0.155801 0.907686
vt 0.155284 0.910417
vt 0.154889 0.908729
vt 0.152409 0.909435
vt 0.153634 0.908190
vt 0.151651 0.906011
vt 0.153233 0.906697
vt 0.153419 0.898965
vt 0.153661 0.903071
vt 0.150288 0.905818
vt 0.146408 0.903934
vt 0.151220 0.910213
vt 0.147795 0.912709
vt 0.155468 0.911291
vt 0.156047 0.915340
vt 0.158557 0.908474
vt 0.162038 0.909977
vt 0.183003 0.851958
vt 0.172412 0.857980
vt 0.172486 0.855358
vt 0.179586 0.850765
vt 0.172532 0.833610
vt 0.183003 0.839705
vt 0.179656 0.840893
vt 0.172586 0.836231
vt 0.157705 0.904364
vt 0.160815 0.902282
vt 0.161857 0.851907
vt 0.165378 0.850709
vt 0.161864 0.839602
vt 0.165453 0.840805
vn -0.4417 0.5736 -0.6898
vn -0.0910 0.9759 -0.1981
vn -0.8405 0.5418 -0.0000
vn -0.2261 0.9741 0.0000
vn -0.4429 0.5736 0.6891
vn -0.0825 0.9742 0.2100
vn 0.4953 0.5276 0.6901
vn 0.1847 0.9599 0.2107
vn 0.8895 0.4569 0.0000
vn 0.2424 0.9702 -0.0000
vn 0.1553 0.9792 -0.1304
vn 0.5096 0.5257 -0.6811
vn 0.5010 0.1899 -0.8443
vn 0.9874 0.1580 0.0000
vn 0.5049 0.1897 0.8421
vn -0.4719 0.2539 0.8443
vn -0.3016 0.7709 0.5610
vn -0.3080 0.7725 -0.5554
vn -0.9583 0.2858 -0.0000
vn 0.3856 0.7406 0.5503
vn 0.5264 0.8502 0.0000
vn -0.4790 0.2543 -0.8402
vn -0.4334 0.9012 0.0000
vn 0.3910 0.7415 -0.5452
usemtl Material.007
s off
f 1/1/1 2/2/1 13/3/1 12/4/1
f 2/2/2 11/5/2 13/3/2
f 3/6/3 4/7/3 2/2/3 1/1/3
f 4/7/4 11/5/4 2/2/4
f 5/8/5 6/9/5 4/7/5 3/6/5
f 6/9/6 11/5/6 4/7/6
f 7/10/7 8/11/7 6/9/7 5/8/7
f 8/11/8 11/5/8 6/9/8
f 9/12/9 10/13/9 8/11/9 7/10/9
f 10/13/10 11/5/10 8/11/10
f 13/3/11 11/5/11 10/13/11
f 12/4/12 13/3/12 10/13/12 9/12/12
f 15/14/13 14/15/13 16/16/13 17/17/13
f 17/17/14 16/16/14 18/18/14 19/19/14
f 19/19/15 18/18/15 20/20/15 21/21/15
f 21/21/16 20/20/16 22/22/16 23/23/16
f 22/24/17 20/25/17 5/26/17 3/27/17
f 14/28/18 24/29/18 1/30/18 12/31/18
f 23/23/19 22/22/19 24/32/19 25/33/19
f 20/25/20 18/34/20 7/35/20 5/26/20
f 18/34/21 16/36/21 9/37/21 7/35/21
f 25/33/22 24/32/22 14/15/22 15/14/22
f 24/29/23 22/24/23 3/27/23 1/30/23
f 16/36/24 14/28/24 12/31/24 9/37/24
